<svg width="279" height="197" viewBox="0 0 279 197" fill="none" xmlns="http://www.w3.org/2000/svg">
<path d="M34.5958 173.807C33.5618 171.858 32.5836 170.04 31.6615 168.355C30.7586 166.643 29.9317 164.966 29.1806 163.324C28.4489 161.656 27.8051 159.95 27.2494 158.207C26.6936 156.464 26.2554 154.574 25.9349 152.535C25.9097 152.375 25.8646 152.089 25.7998 151.677C25.7543 151.238 25.6955 150.79 25.6234 150.332C25.5514 149.874 25.483 149.438 25.4181 149.026C25.3726 148.588 25.3372 148.288 25.312 148.128C25.4461 147.637 25.7344 147.158 26.177 146.689C26.6424 146.217 27.1385 145.94 27.6652 145.857C27.9318 147.551 28.2392 149.357 28.5876 151.273C28.9323 153.167 29.3687 155.046 29.8967 156.911C30.4475 158.772 31.1304 160.577 31.9453 162.326C32.7794 164.049 33.8077 165.588 35.0301 166.945C34.9666 166.392 34.894 165.781 34.8125 165.114C34.7309 164.446 34.6837 163.773 34.6709 163.094C34.6809 162.412 34.7518 161.744 34.8836 161.09C35.0153 160.435 35.2609 159.833 35.6204 159.284C36.0028 158.731 36.5273 158.261 37.194 157.875C37.8835 157.485 38.7797 157.215 39.8826 157.065C40.8673 156.91 41.7777 156.955 42.614 157.198C43.4731 157.439 44.2165 157.838 44.844 158.396C45.4909 158.928 46.0184 159.596 46.4264 160.4C46.8538 161.178 47.1413 162.036 47.289 162.975C47.4871 164.235 47.3725 165.52 46.9451 166.831C46.5177 168.142 45.8643 169.359 44.9851 170.483C44.1288 171.603 43.1177 172.56 41.9518 173.354C40.7824 174.124 39.545 174.612 38.2397 174.818C37.5755 174.922 36.9163 174.909 36.262 174.777C35.6041 174.622 35.0487 174.299 34.5958 173.807ZM40.7648 159.989C40.3464 160.312 39.9124 160.686 39.4626 161.109C39.0128 161.531 38.628 162.143 38.3082 162.945C38.0076 163.719 37.8057 164.748 37.7025 166.032C37.5993 167.315 37.6737 168.981 37.9255 171.03C37.9713 171.023 38.0876 171.017 38.2745 171.011C38.4842 171.001 38.6234 170.991 38.6921 170.98C39.3104 170.883 39.9782 170.578 40.6956 170.067C41.4359 169.551 42.1274 168.95 42.7701 168.262C43.4358 167.571 43.9894 166.838 44.4309 166.065C44.8689 165.268 45.0947 164.541 45.1083 163.881C45.1158 163.481 44.9654 163.047 44.6572 162.58C44.3489 162.112 43.9641 161.679 43.5028 161.283C43.0607 160.859 42.5855 160.523 42.0771 160.275C41.5915 160.023 41.1541 159.927 40.7648 159.989ZM48.7673 163.306C48.5728 162.069 48.5272 160.809 48.6304 159.526C48.7336 158.242 49.0283 157.058 49.5147 155.972C50.0239 154.883 50.7451 153.948 51.6784 153.168C52.6345 152.384 53.8569 151.875 55.3454 151.641C56.1927 151.507 56.9622 151.551 57.6538 151.77C58.3418 151.967 58.943 152.283 59.4574 152.719C59.9717 153.154 60.386 153.699 60.7001 154.354C61.0336 154.982 61.258 155.662 61.3732 156.395C61.5569 157.563 61.4604 158.74 61.0837 159.925C60.7299 161.107 60.1616 162.194 59.3789 163.186C58.6154 164.15 57.684 164.942 56.5845 165.561C55.4814 166.157 54.305 166.436 53.0553 166.398C53.1826 167.058 53.4848 167.562 53.9619 167.91C54.4582 168.23 55.0203 168.447 55.6481 168.56C56.2759 168.672 56.9159 168.712 57.5679 168.68C58.2163 168.625 58.7924 168.558 59.2962 168.479C59.8229 168.396 60.3081 168.273 60.7517 168.109C61.1953 167.945 61.637 167.77 62.077 167.584C62.517 167.397 62.9588 167.222 63.4024 167.058C63.8689 166.891 64.3655 166.766 64.8922 166.683C65.0983 166.651 65.3062 166.63 65.5159 166.62C65.7257 166.611 65.9293 166.637 66.1269 166.7C66.3209 166.74 66.4896 166.843 66.6329 167.008C66.7726 167.15 66.8623 167.347 66.9019 167.599C66.9703 168.034 66.8677 168.426 66.5939 168.774C66.3165 169.099 65.9421 169.404 65.4707 169.69C65.0223 169.972 64.5093 170.217 63.9319 170.425C63.3509 170.61 62.7796 170.782 62.2179 170.941C61.6755 171.073 61.1638 171.177 60.6829 171.253C60.2285 171.347 59.8868 171.413 59.6578 171.449C58.1922 171.679 56.8394 171.658 55.5994 171.383C54.3559 171.086 53.2685 170.588 52.3374 169.89C51.4026 169.169 50.6258 168.258 50.007 167.159C49.4075 166.033 48.9943 164.749 48.7673 163.306ZM52.0573 160.5C52.1834 161.302 52.3783 161.87 52.642 162.204C52.9286 162.534 53.4956 162.633 54.3429 162.499C54.9383 162.406 55.5061 162.211 56.0461 161.915C56.5826 161.596 57.0493 161.205 57.446 160.744C57.8657 160.279 58.1715 159.762 58.3635 159.192C58.5554 158.622 58.6028 158.028 58.5055 157.409C58.4515 157.066 58.3613 156.716 58.235 156.361C58.1316 156.001 57.9648 155.687 57.7348 155.419C57.5012 155.127 57.2211 154.913 56.8946 154.776C56.5874 154.613 56.2048 154.568 55.7468 154.64C55.0597 154.748 54.4552 155.007 53.9331 155.418C53.4303 155.802 53.0239 156.277 52.7139 156.842C52.4002 157.384 52.1889 157.98 52.0801 158.631C51.9676 159.259 51.96 159.882 52.0573 160.5ZM66.4641 155.524C66.4317 155.318 66.4108 155.11 66.4012 154.9C66.3881 154.668 66.4033 154.466 66.4468 154.295C66.4867 154.101 66.5663 153.936 66.6857 153.799C66.828 153.66 67.0365 153.568 67.3113 153.525C67.5403 153.489 67.8211 153.633 68.1535 153.956C68.5052 154.252 68.8732 154.652 69.2573 155.155C69.6379 155.635 70.016 156.174 70.3916 156.772C70.7902 157.366 71.1357 157.922 71.4283 158.439C71.7401 158.93 71.9954 159.359 72.194 159.727C72.3926 160.094 72.5052 160.288 72.5317 160.307C72.7034 159.459 72.8985 158.536 73.1173 157.54C73.336 156.543 73.6457 155.603 74.0463 154.719C74.4662 153.808 74.9994 153.02 75.6457 152.355C76.315 151.686 77.1878 151.268 78.2641 151.098C78.8137 151.012 79.3434 151.022 79.8531 151.13C80.3821 151.211 80.8568 151.395 81.2773 151.68C81.717 151.94 82.0874 152.28 82.3884 152.702C82.6895 153.124 82.8868 153.633 82.9805 154.228C83.0597 154.732 82.9094 155.12 82.5297 155.391C82.1728 155.658 81.7424 155.831 81.2386 155.91L80.8951 155.965L79.1857 154.72C79.1399 154.727 79.1038 154.721 79.0773 154.702C79.0315 154.709 78.9857 154.716 78.9399 154.723C78.9134 154.704 78.8772 154.698 78.8314 154.705C78.0299 154.831 77.4362 155.159 77.0502 155.689C76.6835 156.193 76.4379 156.795 76.3134 157.495C76.1852 158.172 76.1444 158.882 76.191 159.626C76.2569 160.343 76.3366 160.999 76.4303 161.595C76.5023 162.053 76.6219 162.515 76.7892 162.982C76.9528 163.425 77.1279 163.867 77.3144 164.307C77.4974 164.724 77.6725 165.166 77.8397 165.632C78.0034 166.076 78.1248 166.55 78.204 167.053C78.3553 168.015 77.9157 168.577 76.8852 168.739C76.3127 168.829 75.6705 168.625 74.9585 168.127C74.2429 167.606 73.5022 166.925 72.7362 166.083C71.9931 165.238 71.2585 164.297 70.5324 163.262C69.8027 162.203 69.1471 161.168 68.5656 160.157C67.9841 159.145 67.499 158.224 67.1102 157.394C66.7443 156.559 66.529 155.936 66.4641 155.524ZM84.9995 154.193C84.9779 154.055 84.9437 153.838 84.8969 153.54C84.8693 153.216 84.8286 152.882 84.7745 152.538C84.7434 152.191 84.7026 151.857 84.6522 151.537C84.6247 151.213 84.6001 150.982 84.5785 150.844C84.7728 150.438 85.0465 150.09 85.3998 149.8C85.776 149.506 86.1594 149.258 86.55 149.056C86.8132 150.282 87.215 151.568 87.7553 152.914C88.2956 154.261 88.8606 155.615 89.4504 156.977C90.0365 158.317 90.575 159.652 91.0659 160.982C91.5797 162.31 91.9303 163.569 92.1176 164.759C92.2797 165.79 91.834 166.388 90.7806 166.554C90.1394 166.655 89.5598 166.476 89.0419 166.018C88.5239 165.559 88.0645 164.951 87.6636 164.193C87.2821 163.408 86.9337 162.536 86.6185 161.576C86.2997 160.594 86.0303 159.627 85.8104 158.676C85.6133 157.722 85.4402 156.845 85.2913 156.047C85.1652 155.246 85.068 154.628 84.9995 154.193ZM83.4543 141.235C83.9183 141.35 84.3315 141.59 84.694 141.956C85.0566 142.321 85.242 142.679 85.2502 143.03C85.2777 143.354 85.0618 143.623 84.6025 143.836C84.1396 144.026 83.3165 144.015 82.1332 143.802C82.0359 143.183 82.0658 142.627 82.2227 142.133C82.4026 141.636 82.8131 141.336 83.4543 141.235ZM99.542 164.401C99.226 164.779 98.8133 164.692 98.3039 164.138C97.8173 163.581 97.2707 162.717 96.664 161.545C96.0536 160.35 95.4055 158.915 94.7196 157.24C94.0565 155.561 93.3887 153.776 92.7161 151.888C92.0436 149.999 91.3788 148.085 90.722 146.147C90.0844 144.182 89.501 142.338 88.9717 140.614C88.9213 140.293 88.8594 139.975 88.7861 139.658C88.7321 139.314 88.7178 139 88.7433 138.714C88.7881 138.402 88.8955 138.115 89.0656 137.854C89.2585 137.589 89.575 137.363 90.015 137.176C90.0572 137.146 90.1524 137.155 90.3006 137.202C90.4681 137.222 90.6393 137.266 90.814 137.332C90.9851 137.376 91.1351 137.434 91.264 137.508C91.4158 137.578 91.52 137.644 91.5766 137.705C91.9525 142.034 93.1004 146.125 95.0203 149.976C95.0782 149.897 95.2254 149.639 95.4619 149.203C95.6947 148.744 95.9988 148.215 96.3739 147.616C96.7455 146.995 97.1689 146.33 97.6441 145.621C98.1423 144.909 98.6706 144.24 99.2289 143.612C99.7873 142.984 100.36 142.448 100.947 142.004C101.531 141.537 102.12 141.256 102.716 141.163C103.059 141.109 103.404 141.137 103.75 141.247C104.118 141.353 104.339 141.635 104.411 142.093C104.418 142.139 104.417 142.209 104.409 142.304C104.397 142.377 104.394 142.436 104.402 142.482C104.086 142.86 103.602 143.44 102.951 144.223C102.322 145.003 101.661 145.869 100.966 146.824C100.271 147.778 99.6163 148.761 99.0011 149.773C98.3859 150.785 97.9466 151.722 97.6834 152.585C97.6363 152.733 97.6332 152.862 97.6741 152.973C97.7114 153.061 97.7524 153.172 97.7969 153.306C98.0632 153.358 98.4855 153.432 99.064 153.529C99.6424 153.626 100.283 153.748 100.987 153.895C101.687 154.02 102.437 154.16 103.236 154.316C104.031 154.449 104.781 154.589 105.484 154.737C106.188 154.884 106.82 155.02 107.379 155.143C107.957 155.24 108.391 155.312 108.68 155.361C109.022 155.448 109.3 155.498 109.513 155.511C109.727 155.525 109.898 155.568 110.027 155.642C110.152 155.692 110.248 155.783 110.316 155.913C110.383 156.043 110.439 156.246 110.482 156.521C110.586 157.185 110.494 157.645 110.206 157.901C109.918 158.158 109.476 158.333 108.881 158.427C107.099 158.59 105.313 158.495 103.521 158.143C101.725 157.769 99.8873 157.272 98.0064 156.652C98.0061 157.098 98.1083 157.598 98.3128 158.153C98.5403 158.704 98.7906 159.251 99.0639 159.795C99.3371 160.339 99.5971 160.873 99.8439 161.397C100.114 161.918 100.294 162.394 100.385 162.825C100.5 163.253 100.508 163.604 100.41 163.878C100.312 164.151 100.023 164.326 99.542 164.401ZM126.245 156.364C125.469 157.097 124.798 157.754 124.232 158.335C123.686 158.891 123.14 159.375 122.595 159.79C122.05 160.204 121.447 160.545 120.785 160.814C120.146 161.078 119.334 161.288 118.35 161.443C116.22 161.778 114.551 161.465 113.344 160.505C112.134 159.523 111.352 157.909 110.999 155.665C110.862 154.795 110.834 153.872 110.916 152.897C110.997 151.922 111.183 150.942 111.474 149.958C111.785 148.947 112.184 147.981 112.673 147.059C113.158 146.114 113.739 145.26 114.417 144.497C115.095 143.733 115.84 143.1 116.652 142.596C117.484 142.067 118.393 141.724 119.377 141.569C121.051 141.47 122.41 141.679 123.453 142.195C124.493 142.689 125.334 143.413 125.977 144.368C126.617 145.3 127.127 146.381 127.509 147.612C127.886 148.82 128.225 150.081 128.526 151.394C128.849 152.705 129.196 154.011 129.565 155.314C129.934 156.617 130.459 157.79 131.139 158.833C130.96 159.636 130.757 160.207 130.529 160.548C130.327 160.908 130.05 161.011 129.697 160.855C129.344 160.699 128.887 160.255 128.326 159.522C127.788 158.785 127.094 157.733 126.245 156.364ZM113.93 155.274C114.135 156.58 114.527 157.504 115.105 158.046C115.702 158.562 116.631 158.721 117.89 158.523C118.829 158.376 119.697 158.075 120.494 157.621C121.31 157.141 121.994 156.564 122.545 155.89C123.093 155.194 123.496 154.403 123.756 153.517C124.015 152.632 124.066 151.685 123.907 150.678C123.843 150.265 123.764 149.691 123.672 148.955C123.576 148.195 123.413 147.458 123.183 146.744C122.953 146.029 122.637 145.433 122.233 144.957C121.826 144.458 121.302 144.259 120.661 144.359C119.47 144.547 118.419 145.029 117.509 145.806C116.595 146.559 115.846 147.463 115.26 148.518C114.675 149.572 114.267 150.704 114.035 151.914C113.799 153.101 113.764 154.221 113.93 155.274ZM130.979 148.298C130.885 147.703 130.967 147.256 131.225 146.957C131.48 146.635 131.939 146.422 132.603 146.318L132.947 146.264C133.073 146.619 133.22 147.03 133.387 147.497C133.554 147.963 133.769 148.434 134.032 148.909C134.294 149.384 134.586 149.819 134.906 150.215C135.223 150.587 135.584 150.871 135.99 151.065C135.887 150.26 135.961 149.462 136.212 148.672C136.482 147.855 136.847 147.117 137.307 146.458C137.786 145.773 138.327 145.183 138.93 144.689C139.552 144.169 140.184 143.788 140.827 143.546L141.582 143.427C142.681 143.254 143.66 143.358 144.518 143.74C145.372 144.098 146.114 144.639 146.744 145.361C147.393 146.057 147.934 146.887 148.368 147.851C148.801 148.815 149.169 149.814 149.472 150.845C149.795 151.851 150.045 152.844 150.223 153.825C150.42 154.78 150.572 155.6 150.68 156.287L148.173 156.682C147.819 155.329 147.44 154.04 147.036 152.813C146.888 152.32 146.714 151.807 146.513 151.276C146.308 150.721 146.099 150.214 145.886 149.755C145.67 149.273 145.449 148.838 145.224 148.451C144.995 148.041 144.754 147.704 144.501 147.438C144.395 147.361 144.249 147.255 144.064 147.12C143.901 146.981 143.727 146.844 143.542 146.709C143.356 146.574 143.186 146.46 143.03 146.367C142.875 146.274 142.786 146.23 142.763 146.233C142.047 146.158 141.473 146.389 141.041 146.927C140.606 147.441 140.253 148.107 139.983 148.924C139.712 149.74 139.527 150.65 139.426 151.651C139.348 152.649 139.3 153.607 139.28 154.525C139.256 155.421 139.263 156.206 139.298 156.881C139.331 157.533 139.346 157.929 139.345 158.07C138.837 158.573 138.319 158.783 137.79 158.702C137.257 158.598 136.718 158.307 136.174 157.83C135.652 157.349 135.144 156.725 134.648 155.958C134.174 155.188 133.717 154.368 133.275 153.499C132.83 152.607 132.407 151.711 132.008 150.812C131.631 149.909 131.288 149.071 130.979 148.298ZM164.913 140.462C164.891 140.324 164.853 140.084 164.799 139.74C164.764 139.37 164.716 138.991 164.655 138.601C164.594 138.212 164.538 137.857 164.488 137.536C164.457 137.189 164.43 136.947 164.409 136.81C164.526 136.51 164.667 136.217 164.834 135.933C165.02 135.622 165.22 135.403 165.434 135.275C165.668 135.121 165.928 135.057 166.214 135.082C166.522 135.104 166.856 135.287 167.215 135.629L167.258 135.904L167.328 136.35C167.323 136.468 167.321 136.75 167.321 137.196C167.317 137.619 167.309 138.09 167.296 138.608C167.284 139.126 167.266 139.61 167.243 140.06C167.239 140.483 167.246 140.752 167.264 140.866C167.333 141.301 167.465 141.844 167.661 142.493C167.853 143.12 168.086 143.776 168.358 144.461C168.652 145.142 168.982 145.817 169.345 146.488C169.732 147.154 170.153 147.745 170.61 148.26C171.062 148.752 171.535 149.147 172.028 149.445C172.544 149.739 173.099 149.84 173.694 149.746C174.427 149.631 175.038 149.335 175.526 148.859C176.038 148.38 176.451 147.799 176.766 147.116C177.081 146.433 177.303 145.682 177.432 144.864C177.585 144.042 177.68 143.229 177.717 142.425C177.752 141.598 177.746 140.813 177.699 140.07C177.652 139.326 177.586 138.679 177.499 138.13C177.413 137.58 177.286 137.072 177.119 136.606C176.971 136.113 176.802 135.635 176.612 135.172C176.422 134.709 176.245 134.256 176.081 133.812C175.937 133.342 175.827 132.866 175.751 132.386C175.683 131.95 175.783 131.618 176.052 131.388C176.344 131.154 176.684 131.007 177.073 130.946C177.554 130.87 177.967 130.958 178.312 131.208C178.653 131.436 178.937 131.755 179.166 132.165C179.418 132.572 179.611 133.057 179.747 133.623C179.902 134.161 180.023 134.706 180.11 135.255C180.196 135.805 180.268 136.333 180.324 136.841C180.377 137.325 180.426 137.716 180.473 138.014C180.596 138.793 180.677 139.683 180.718 140.686C180.758 141.689 180.712 142.74 180.58 143.84C180.467 144.914 180.273 145.989 179.996 147.065C179.742 148.138 179.369 149.123 178.877 150.022C178.404 150.894 177.805 151.634 177.079 152.241C176.376 152.844 175.532 153.223 174.547 153.378C173.517 153.54 172.575 153.442 171.72 153.084C170.862 152.702 170.096 152.154 169.42 151.439C168.764 150.697 168.171 149.84 167.643 148.867C167.114 147.895 166.666 146.909 166.298 145.911C165.952 144.909 165.658 143.935 165.415 142.987C165.192 142.013 165.024 141.171 164.913 140.462ZM181.756 141.579C181.605 140.617 181.653 139.577 181.899 138.459C182.169 137.337 182.592 136.296 183.168 135.337C183.741 134.355 184.441 133.506 185.267 132.79C186.116 132.069 187.055 131.628 188.086 131.466C188.612 131.383 189.154 131.392 189.709 131.493C190.265 131.593 190.775 131.782 191.242 132.061C191.731 132.336 192.139 132.694 192.467 133.136C192.817 133.573 193.039 134.09 193.133 134.685C192.721 134.75 192.336 134.764 191.978 134.726C191.643 134.685 191.306 134.632 190.967 134.568C190.625 134.481 190.286 134.417 189.951 134.376C189.639 134.331 189.3 134.338 188.934 134.395C187.995 134.543 187.265 134.904 186.746 135.479C186.245 136.027 185.879 136.683 185.647 137.447C185.415 138.211 185.296 139.016 185.288 139.862C185.299 140.681 185.361 141.446 185.473 142.156C185.491 142.27 185.525 142.488 185.575 142.808C185.649 143.125 185.714 143.467 185.772 143.834C185.849 144.173 185.912 144.504 185.963 144.824C186.036 145.141 186.093 145.355 186.134 145.466C186.472 145.976 186.78 146.362 187.055 146.624C187.354 146.882 187.653 147.069 187.954 147.186C188.25 147.281 188.562 147.325 188.89 147.321C189.214 147.293 189.594 147.245 190.029 147.177C190.624 147.083 191.125 146.91 191.531 146.659C191.961 146.404 192.35 146.119 192.7 145.806C193.049 145.493 193.373 145.161 193.669 144.809C193.962 144.434 194.272 144.092 194.599 143.783C194.945 143.447 195.323 143.164 195.733 142.936C196.162 142.68 196.663 142.508 197.235 142.418C197.412 143.54 197.363 144.568 197.087 145.503C196.835 146.435 196.391 147.267 195.755 148.001C195.143 148.731 194.371 149.345 193.44 149.843C192.529 150.315 191.501 150.641 190.356 150.821C189.279 150.991 188.248 150.777 187.263 150.181C186.3 149.582 185.427 148.804 184.643 147.848C183.878 146.865 183.242 145.804 182.734 144.663C182.226 143.523 181.9 142.495 181.756 141.579ZM213.653 142.616C212.877 143.348 212.205 144.005 211.64 144.587C211.094 145.142 210.548 145.627 210.003 146.041C209.458 146.456 208.855 146.797 208.193 147.065C207.554 147.33 206.742 147.54 205.757 147.695C203.628 148.03 201.959 147.717 200.752 146.757C199.542 145.774 198.76 144.161 198.407 141.917C198.27 141.046 198.242 140.124 198.324 139.149C198.405 138.174 198.591 137.194 198.882 136.21C199.192 135.199 199.592 134.233 200.081 133.311C200.566 132.366 201.147 131.512 201.825 130.748C202.503 129.985 203.248 129.351 204.06 128.848C204.892 128.318 205.8 127.976 206.785 127.821C208.459 127.722 209.818 127.931 210.861 128.447C211.901 128.941 212.742 129.665 213.385 130.62C214.025 131.552 214.535 132.633 214.916 133.864C215.294 135.072 215.633 136.332 215.934 137.646C216.257 138.956 216.604 140.263 216.973 141.566C217.342 142.869 217.867 144.042 218.547 145.085C218.368 145.887 218.165 146.459 217.937 146.8C217.735 147.16 217.458 147.262 217.105 147.107C216.752 146.951 216.295 146.507 215.734 145.774C215.195 145.037 214.502 143.984 213.653 142.616ZM201.338 141.526C201.543 142.831 201.935 143.755 202.513 144.298C203.11 144.814 204.039 144.973 205.298 144.775C206.237 144.627 207.105 144.327 207.902 143.873C208.718 143.392 209.402 142.815 209.953 142.142C210.5 141.446 210.904 140.655 211.164 139.769C211.423 138.884 211.474 137.937 211.315 136.929C211.251 136.517 211.172 135.943 211.08 135.206C210.984 134.447 210.821 133.71 210.591 132.995C210.361 132.28 210.045 131.685 209.641 131.209C209.234 130.709 208.71 130.51 208.069 130.611C206.878 130.798 205.827 131.281 204.917 132.057C204.003 132.811 203.254 133.715 202.668 134.769C202.083 135.824 201.675 136.956 201.443 138.165C201.207 139.352 201.172 140.473 201.338 141.526ZM218.214 133.451C217.864 131.229 218.12 129.5 218.982 128.261C219.843 127.023 221.338 126.236 223.468 125.901C224.338 125.764 225.244 125.704 226.185 125.72C227.149 125.733 228.053 125.884 228.896 126.174C229.736 126.44 230.453 126.891 231.045 127.525C231.661 128.156 232.057 129.032 232.233 130.154C232.428 131.391 232.336 132.602 231.96 133.788C231.602 134.947 231.087 136.072 230.414 137.164C229.76 138.229 229.006 139.251 228.151 140.23C227.315 141.183 226.531 142.092 225.799 142.959C225.768 143.057 225.752 143.259 225.753 143.564C225.774 143.843 225.791 144.028 225.805 144.119C225.924 144.875 226.261 145.596 226.815 146.284C227.395 146.99 228.01 147.691 228.659 148.387C229.312 149.106 229.923 149.855 230.491 150.633C231.059 151.412 231.416 152.26 231.56 153.176C231.646 153.725 231.582 154.064 231.367 154.192C231.156 154.342 230.684 154.475 229.952 154.59C229.465 154.479 228.938 154.116 228.372 153.501C227.833 152.905 227.257 152.151 226.644 151.239C226.054 150.322 225.444 149.28 224.814 148.112C224.211 146.963 223.616 145.789 223.028 144.591C222.46 143.366 221.907 142.163 221.369 140.98C220.851 139.771 220.382 138.66 219.965 137.646C219.547 136.632 219.176 135.763 218.851 135.04C218.545 134.29 218.333 133.761 218.214 133.451ZM221.182 133.301C221.236 133.644 221.338 134.144 221.489 134.801C221.635 135.435 221.828 136.062 222.066 136.682C222.327 137.298 222.644 137.823 223.018 138.257C223.388 138.668 223.836 138.832 224.362 138.749C225.072 138.638 225.744 138.285 226.379 137.693C227.036 137.097 227.582 136.389 228.016 135.57C228.473 134.747 228.809 133.896 229.023 133.018C229.256 132.113 229.318 131.317 229.21 130.63C229.12 130.057 228.913 129.632 228.587 129.355C228.258 129.055 227.862 128.847 227.398 128.733C226.954 128.591 226.487 128.536 225.999 128.565C225.507 128.572 225.044 128.61 224.609 128.678C223.304 128.884 222.352 129.397 221.754 130.219C221.175 131.014 220.984 132.041 221.182 133.301ZM249.791 136.932C249.015 137.664 248.343 138.321 247.778 138.903C247.232 139.458 246.686 139.943 246.141 140.357C245.596 140.772 244.993 141.113 244.331 141.381C243.692 141.646 242.88 141.856 241.895 142.011C239.766 142.346 238.097 142.033 236.89 141.073C235.68 140.09 234.898 138.477 234.545 136.232C234.408 135.362 234.38 134.44 234.462 133.465C234.543 132.49 234.729 131.51 235.02 130.526C235.33 129.515 235.73 128.548 236.219 127.627C236.704 126.682 237.285 125.828 237.963 125.064C238.641 124.301 239.386 123.667 240.198 123.164C241.03 122.634 241.938 122.292 242.923 122.137C244.597 122.038 245.956 122.247 246.999 122.763C248.039 123.257 248.88 123.981 249.523 124.936C250.163 125.868 250.673 126.949 251.054 128.18C251.432 129.387 251.771 130.648 252.072 131.962C252.395 133.272 252.741 134.579 253.111 135.882C253.48 137.185 254.005 138.358 254.685 139.401C254.506 140.203 254.303 140.775 254.075 141.116C253.873 141.476 253.596 141.578 253.243 141.423C252.89 141.267 252.433 140.823 251.872 140.09C251.333 139.353 250.64 138.3 249.791 136.932ZM237.476 135.842C237.681 137.147 238.073 138.071 238.651 138.614C239.248 139.13 240.177 139.289 241.436 139.091C242.375 138.943 243.243 138.643 244.04 138.189C244.856 137.708 245.54 137.131 246.091 136.458C246.638 135.762 247.042 134.971 247.302 134.085C247.561 133.2 247.612 132.253 247.453 131.245C247.389 130.833 247.31 130.259 247.218 129.522C247.122 128.763 246.959 128.026 246.729 127.311C246.499 126.596 246.183 126.001 245.779 125.525C245.372 125.025 244.848 124.826 244.207 124.927C243.016 125.114 241.965 125.596 241.055 126.373C240.141 127.127 239.392 128.031 238.806 129.085C238.221 130.14 237.813 131.272 237.581 132.481C237.345 133.668 237.31 134.789 237.476 135.842ZM254.525 128.866C254.431 128.27 254.513 127.823 254.771 127.525C255.026 127.203 255.485 126.99 256.149 126.886L256.493 126.832C256.619 127.187 256.766 127.598 256.933 128.065C257.1 128.531 257.315 129.002 257.578 129.477C257.84 129.952 258.131 130.387 258.452 130.783C258.769 131.155 259.13 131.439 259.536 131.633C259.433 130.828 259.507 130.03 259.758 129.24C260.028 128.423 260.393 127.685 260.853 127.026C261.332 126.34 261.873 125.751 262.475 125.257C263.098 124.737 263.73 124.356 264.372 124.114L265.128 123.995C266.227 123.822 267.206 123.926 268.064 124.308C268.918 124.666 269.66 125.206 270.29 125.929C270.939 126.624 271.48 127.454 271.914 128.419C272.347 129.383 272.715 130.381 273.018 131.413C273.341 132.418 273.591 133.412 273.768 134.393C273.966 135.347 274.118 136.168 274.226 136.855L271.719 137.25C271.365 135.897 270.986 134.607 270.582 133.38C270.434 132.887 270.26 132.375 270.059 131.843C269.854 131.289 269.645 130.782 269.432 130.323C269.216 129.841 268.995 129.406 268.77 129.019C268.541 128.609 268.3 128.271 268.047 128.006C267.941 127.929 267.795 127.823 267.61 127.688C267.447 127.549 267.273 127.412 267.088 127.277C266.902 127.142 266.732 127.028 266.576 126.935C266.421 126.842 266.332 126.798 266.309 126.801C265.593 126.726 265.019 126.957 264.587 127.494C264.152 128.009 263.799 128.674 263.529 129.491C263.258 130.308 263.073 131.217 262.972 132.219C262.894 133.217 262.846 134.175 262.826 135.093C262.802 135.988 262.809 136.774 262.844 137.449C262.876 138.101 262.892 138.497 262.891 138.638C262.383 139.14 261.865 139.351 261.336 139.27C260.803 139.166 260.264 138.875 259.72 138.398C259.198 137.916 258.69 137.292 258.193 136.526C257.72 135.755 257.263 134.935 256.821 134.066C256.376 133.174 255.953 132.279 255.554 131.379C255.177 130.476 254.834 129.639 254.525 128.866Z" fill="#F8FAF8"/>
<path d="M31.7417 100.023C31.7417 99.8139 31.7417 99.6053 31.7417 99.3966C31.7649 99.1648 31.8113 98.9562 31.8808 98.7707C31.9735 98.5621 32.0895 98.4114 32.2285 98.3187C32.3908 98.2028 32.6226 98.1448 32.924 98.1448C32.9472 98.1448 32.9704 98.1448 32.9935 98.1448C33.0399 98.1448 33.0863 98.1448 33.1326 98.1448C33.2022 98.168 33.2601 98.1796 33.3065 98.1796C33.747 98.7823 34.1295 99.5589 34.454 100.509C34.7785 101.437 35.0915 102.433 35.3929 103.5C35.6942 104.543 36.0188 105.609 36.3665 106.699C36.7142 107.765 37.1663 108.727 37.7226 109.585C38.279 110.443 38.9629 111.127 39.7742 111.637C40.5856 112.147 41.594 112.367 42.7994 112.297C43.3326 112.297 43.6803 112.008 43.8426 111.428C44.0049 110.848 44.086 110.107 44.086 109.203C44.1092 108.298 44.086 107.302 44.0165 106.212C43.9701 105.123 43.9701 104.091 44.0165 103.117C44.086 102.12 44.2599 101.251 44.5381 100.509C44.8394 99.7675 45.3494 99.2691 46.0681 99.0141C46.3694 99.6168 46.6128 100.567 46.7983 101.865C47.0069 103.14 47.1576 104.624 47.2503 106.316C47.3431 107.985 47.3894 109.805 47.3894 111.776C47.3894 113.723 47.3431 115.67 47.2503 117.618C47.1576 119.542 47.0185 121.396 46.8331 123.181C46.6476 124.966 46.439 126.531 46.2072 127.875C45.9753 129.22 45.6972 130.275 45.3726 131.04C45.0713 131.828 44.7467 132.164 44.399 132.048C43.9122 131.585 43.5297 130.982 43.2515 130.24C42.9965 129.498 42.811 128.675 42.6951 127.771C42.6024 126.867 42.5676 125.905 42.5908 124.885C42.614 123.888 42.6488 122.88 42.6951 121.86C42.7647 120.84 42.8342 119.843 42.9038 118.869C42.9965 117.896 43.0428 117.003 43.0428 116.192C42.2083 116.261 41.3506 116.134 40.4697 115.809C39.6119 115.485 38.7658 114.986 37.9313 114.314C37.0967 113.619 36.2969 112.784 35.5319 111.81C34.7901 110.837 34.1295 109.736 33.5499 108.507C32.9935 107.278 32.5531 105.957 32.2285 104.543C31.904 103.106 31.7417 101.599 31.7417 100.023ZM48.7636 103.813C48.7636 103.674 48.7636 103.43 48.7636 103.083C48.7868 102.712 48.7984 102.329 48.7984 101.935C48.7984 101.541 48.7984 101.182 48.7984 100.857C48.8216 100.509 48.8332 100.266 48.8332 100.127C48.9955 99.8487 49.1809 99.5821 49.3896 99.3271C49.6214 99.0489 49.8532 98.8634 50.085 98.7707C50.34 98.6548 50.6066 98.6316 50.8848 98.7012C51.1861 98.7707 51.4875 99.0025 51.7889 99.3966V99.6748V100.127C51.7657 100.243 51.7193 100.521 51.6498 100.961C51.5802 101.379 51.4991 101.842 51.4064 102.352C51.3136 102.862 51.2209 103.338 51.1282 103.778C51.0586 104.195 51.0239 104.462 51.0239 104.578C51.0239 105.018 51.0702 105.575 51.163 106.247C51.2557 106.896 51.3832 107.58 51.5455 108.298C51.7309 109.017 51.9511 109.736 52.2061 110.454C52.4843 111.173 52.8089 111.822 53.1798 112.402C53.5507 112.958 53.9564 113.422 54.3968 113.793C54.8605 114.163 55.3936 114.349 55.9964 114.349C56.7382 114.349 57.3873 114.152 57.9436 113.758C58.5232 113.364 59.0216 112.854 59.4389 112.228C59.8561 111.602 60.1923 110.895 60.4473 110.107C60.7255 109.318 60.9457 108.53 61.108 107.742C61.2702 106.931 61.3861 106.154 61.4557 105.412C61.5252 104.67 61.56 104.021 61.56 103.465C61.56 102.909 61.5136 102.387 61.4209 101.9C61.3514 101.39 61.2586 100.892 61.1427 100.405C61.0268 99.9182 60.9225 99.443 60.8298 98.9793C60.7602 98.4925 60.7255 98.0057 60.7255 97.5189C60.7255 97.0784 60.8761 96.7655 61.1775 96.58C61.502 96.3946 61.8614 96.3018 62.2554 96.3018C62.7423 96.3018 63.1364 96.4525 63.4377 96.7539C63.7391 97.0321 63.9709 97.3914 64.1332 97.8318C64.3186 98.2723 64.4345 98.7823 64.4809 99.3618C64.5504 99.9182 64.5852 100.475 64.5852 101.031C64.5852 101.587 64.5736 102.12 64.5504 102.63C64.5273 103.117 64.5157 103.511 64.5157 103.813C64.5157 104.601 64.4577 105.493 64.3418 106.49C64.2259 107.487 64.0173 108.519 63.7159 109.585C63.4377 110.628 63.0784 111.66 62.6379 112.68C62.2207 113.7 61.6991 114.615 61.0732 115.427C60.4705 116.215 59.7634 116.853 58.952 117.339C58.1639 117.826 57.2714 118.07 56.2745 118.07C55.2314 118.07 54.3157 117.826 53.5275 117.339C52.7393 116.829 52.0671 116.169 51.5107 115.357C50.9775 114.523 50.5255 113.584 50.1546 112.541C49.7836 111.498 49.4939 110.454 49.2852 109.411C49.0998 108.368 48.9607 107.36 48.868 106.386C48.7984 105.389 48.7636 104.531 48.7636 103.813ZM72.6706 117.305C72.2997 117.629 71.9056 117.478 71.4883 116.853C71.0942 116.227 70.6885 115.288 70.2712 114.036C69.854 112.761 69.4367 111.243 69.0194 109.481C68.6253 107.719 68.2428 105.853 67.8719 103.882C67.501 101.912 67.1417 99.9182 66.794 97.9014C66.4694 95.8614 66.1797 93.9489 65.9247 92.1639C65.9247 91.8394 65.9131 91.5148 65.8899 91.1903C65.8899 90.8425 65.9247 90.5296 65.9942 90.2514C66.0869 89.95 66.2376 89.6834 66.4463 89.4516C66.6781 89.2198 67.0258 89.0459 67.4894 88.93C67.5358 88.9069 67.6285 88.93 67.7676 88.9996C67.9299 89.0459 68.0922 89.1155 68.2544 89.2082C68.4167 89.2778 68.5558 89.3589 68.6717 89.4516C68.8108 89.5444 68.9035 89.6255 68.9499 89.695C68.6485 94.03 69.1469 98.2491 70.4451 102.352C70.5147 102.283 70.7001 102.051 71.0015 101.657C71.3028 101.24 71.6853 100.764 72.149 100.231C72.6126 99.6748 73.1342 99.0837 73.7137 98.4578C74.3165 97.8318 74.9424 97.2523 75.5915 96.7191C76.2406 96.1859 76.8896 95.7455 77.5387 95.3978C78.1878 95.0268 78.8137 94.8414 79.4165 94.8414C79.7642 94.8414 80.1003 94.9225 80.4249 95.0848C80.7726 95.2471 80.9465 95.56 80.9465 96.0237C80.9465 96.07 80.9349 96.1396 80.9117 96.2323C80.8885 96.3018 80.8769 96.3598 80.8769 96.4062C80.506 96.7307 79.9381 97.2291 79.1731 97.9014C78.4312 98.5737 77.6431 99.3271 76.8085 100.162C75.974 100.996 75.1742 101.865 74.4092 102.77C73.6442 103.674 73.0647 104.531 72.6706 105.343C72.601 105.482 72.5778 105.609 72.601 105.725C72.6242 105.818 72.6474 105.934 72.6706 106.073C72.9256 106.166 73.3312 106.305 73.8876 106.49C74.444 106.676 75.0583 106.896 75.7306 107.151C76.4028 107.383 77.1215 107.638 77.8865 107.916C78.6515 108.171 79.3701 108.426 80.0424 108.681C80.7146 108.936 81.3174 109.168 81.8506 109.376C82.4069 109.562 82.8242 109.701 83.1024 109.794C83.4269 109.933 83.6935 110.025 83.9021 110.072C84.1108 110.118 84.273 110.188 84.389 110.28C84.5049 110.35 84.586 110.454 84.6324 110.593C84.6787 110.733 84.7019 110.941 84.7019 111.219C84.7019 111.892 84.5396 112.332 84.2151 112.541C83.8905 112.749 83.4269 112.854 82.8242 112.854C81.0392 112.738 79.289 112.367 77.5735 111.741C75.8581 111.092 74.1194 110.315 72.3576 109.411C72.2881 109.852 72.3112 110.362 72.4272 110.941C72.5662 111.521 72.7285 112.1 72.914 112.68C73.0994 113.259 73.2733 113.827 73.4356 114.384C73.621 114.94 73.7253 115.438 73.7485 115.879C73.7949 116.319 73.7485 116.667 73.6094 116.922C73.4703 117.177 73.1574 117.305 72.6706 117.305Z" fill="#F8FAF8"/>
<path d="M145 113C134 41 185 17 243.996 23.7711M243.996 3C243.996 3 267.734 17.8363 267.734 23.7711C267.734 29.7059 243.996 44.5418 243.996 44.5418" stroke="#F8FAF8" stroke-width="5.93454" stroke-linecap="round" stroke-linejoin="round"/>
</svg>
