<svg width="124" height="110" viewBox="0 0 124 110" fill="none" xmlns="http://www.w3.org/2000/svg">
<path d="M71 13.8781L71.5836 14.6901L71 13.8781ZM1.68139 2.86318C2.09315 3.23125 2.72532 3.19583 3.09339 2.78408C3.46146 2.37232 3.42604 1.74015 3.01428 1.37208L1.68139 2.86318ZM10.1128 6.98954C9.6615 6.67116 9.03756 6.77888 8.71918 7.23016C8.40079 7.68143 8.50851 8.30536 8.95979 8.62375L10.1128 6.98954ZM12.0358 10.6995C12.4999 10.9988 13.1189 10.8653 13.4182 10.4011C13.7176 9.93703 13.584 9.31811 13.1199 9.01875L12.0358 10.6995ZM20.988 13.5239C20.4945 13.276 19.8935 13.475 19.6455 13.9685C19.3976 14.462 19.5966 15.0631 20.0901 15.311L20.988 13.5239ZM23.45 16.9033C23.9545 17.128 24.5457 16.9012 24.7704 16.3967C24.9951 15.8922 24.7683 15.301 24.2638 15.0763L23.45 16.9033ZM32.7368 18.219C32.2071 18.0626 31.651 18.3653 31.4946 18.895C31.3383 19.4247 31.6409 19.9808 32.1706 20.1372L32.7368 18.219ZM35.7793 21.0857C36.3176 21.2095 36.8543 20.8736 36.9781 20.3354C37.102 19.7972 36.7661 19.2605 36.2278 19.1366L35.7793 21.0857ZM45.1252 20.3988C44.5736 20.3716 44.1043 20.7966 44.0771 21.3483C44.0498 21.8999 44.4749 22.3691 45.0265 22.3964L45.1252 20.3988ZM48.7769 22.431C49.3289 22.4135 49.7622 21.9517 49.7446 21.3997C49.727 20.8477 49.2653 20.4145 48.7133 20.432L48.7769 22.431ZM57.5534 19.1696C57.0191 19.3095 56.6994 19.8561 56.8394 20.3903C56.9793 20.9246 57.5258 21.2443 58.0601 21.1044L57.5534 19.1696ZM61.654 19.9795C62.1727 19.7898 62.4394 19.2156 62.2497 18.6969C62.06 18.1782 61.4857 17.9115 60.967 18.1012L61.654 19.9795ZM68.9303 14.0865C68.4683 14.3892 68.3392 15.0091 68.6419 15.471C68.9446 15.933 69.5645 16.0621 70.0264 15.7594L68.9303 14.0865ZM73.1775 13.6402C73.6508 13.3555 73.8036 12.7411 73.5189 12.2678C73.2342 11.7946 72.6198 11.6417 72.1465 11.9264L73.1775 13.6402ZM81.7628 8.49811C81.2167 8.58102 80.8413 9.09087 80.9242 9.6369C81.0071 10.1829 81.517 10.5584 82.063 10.4754L81.7628 8.49811ZM85.8644 10.1704C86.4166 10.1641 86.8592 9.71124 86.8528 9.159C86.8465 8.60675 86.3936 8.16421 85.8414 8.17055L85.8644 10.1704ZM95.8968 9.62874C95.3675 9.47085 94.8105 9.77187 94.6526 10.3011C94.4947 10.8303 94.7957 11.3874 95.325 11.5453L95.8968 9.62874ZM98.9479 12.8426C99.4572 13.0561 100.043 12.8162 100.257 12.3069C100.47 11.7975 100.23 11.2116 99.7209 10.9981L98.9479 12.8426ZM108.481 16.0641C108.042 15.7299 107.414 15.8153 107.08 16.2549C106.746 16.6946 106.831 17.322 107.271 17.6562L108.481 16.0641ZM110.219 20.141C110.623 20.5178 111.256 20.4959 111.632 20.0921C112.009 19.6883 111.987 19.0555 111.583 18.6787L110.219 20.141ZM118.029 26.4899C117.738 26.0209 117.121 25.8772 116.652 26.1689C116.183 26.4605 116.039 27.0772 116.331 27.5462L118.029 26.4899ZM118.175 30.9169C118.413 31.4155 119.01 31.6273 119.508 31.3899C120.007 31.1525 120.219 30.5559 119.981 30.0572L118.175 30.9169ZM122.967 39.7522C122.884 39.2062 122.374 38.8311 121.828 38.9144C121.282 38.9977 120.907 39.5078 120.99 40.0537L122.967 39.7522ZM121.344 43.87C121.363 44.4219 121.825 44.8543 122.377 44.8356C122.929 44.8169 123.361 44.3543 123.343 43.8023L121.344 43.87ZM122.265 53.8813C122.396 53.3449 122.068 52.8034 121.532 52.6718C120.996 52.5402 120.454 52.8683 120.322 53.4047L122.265 53.8813ZM119.225 57.0867C119.042 57.6079 119.317 58.1785 119.838 58.3612C120.359 58.5439 120.93 58.2695 121.113 57.7483L119.225 57.0867ZM116.792 66.8364C117.077 66.3632 116.924 65.7487 116.451 65.464C115.978 65.1792 115.363 65.332 115.078 65.8052L116.792 66.8364ZM112.947 69.0837C112.631 69.5364 112.742 70.1598 113.194 70.4761C113.647 70.7924 114.271 70.6818 114.587 70.2291L112.947 69.0837ZM108.279 77.9851C108.656 77.5808 108.633 76.948 108.229 76.5718C107.824 76.1955 107.191 76.2183 106.815 76.6226L108.279 77.9851ZM104.084 79.4219C103.69 79.8083 103.683 80.4414 104.07 80.836C104.456 81.2306 105.089 81.2371 105.484 80.8507L104.084 79.4219ZM98.0267 87.4517C98.4568 87.1053 98.5246 86.4758 98.1782 86.0456C97.8318 85.6155 97.2023 85.5477 96.7721 85.8941L98.0267 87.4517ZM93.6197 88.3461C93.1783 88.678 93.0894 89.3049 93.4213 89.7463C93.7531 90.1878 94.38 90.2766 94.8215 89.9448L93.6197 88.3461ZM86.6805 95.614C87.1441 95.3139 87.2767 94.6948 86.9767 94.2312C86.6766 93.7675 86.0574 93.6349 85.5938 93.935L86.6805 95.614ZM82.3054 96.0069C81.8347 96.2957 81.6872 96.9114 81.976 97.3822C82.2649 97.8529 82.8806 98.0004 83.3514 97.7116L82.3054 96.0069ZM74.7432 102.672C75.2287 102.409 75.4088 101.802 75.1455 101.317C74.8823 100.831 74.2753 100.651 73.7898 100.914L74.7432 102.672ZM70.2368 102.796C69.7463 103.05 69.5545 103.654 69.8084 104.144C70.0623 104.635 70.6657 104.826 71.1562 104.573L70.2368 102.796ZM62.2798 108.928C62.7804 108.695 62.9973 108.1 62.7641 107.6C62.531 107.099 61.9361 106.882 61.4354 107.115L62.2798 108.928ZM0.312255 1.604C0.747337 2.01619 1.20405 2.43649 1.68139 2.86318L3.01428 1.37208C2.55085 0.957821 2.10836 0.550578 1.68774 0.152099L0.312255 1.604ZM8.95979 8.62375C9.94643 9.31986 10.973 10.0139 12.0358 10.6995L13.1199 9.01875C12.0808 8.3485 11.0772 7.66997 10.1128 6.98954L8.95979 8.62375ZM20.0901 15.311C21.1878 15.8625 22.3086 16.3949 23.45 16.9033L24.2638 15.0763C23.1518 14.581 22.059 14.062 20.988 13.5239L20.0901 15.311ZM32.1706 20.1372C33.3607 20.4884 34.5644 20.8061 35.7793 21.0857L36.2278 19.1366C35.0542 18.8665 33.8897 18.5593 32.7368 18.219L32.1706 20.1372ZM45.0265 22.3964C46.2722 22.4579 47.5232 22.4709 48.7769 22.431L48.7133 20.432C47.5157 20.4702 46.3189 20.4578 45.1252 20.3988L45.0265 22.3964ZM58.0601 21.1044C59.2624 20.7895 60.4611 20.4158 61.654 19.9795L60.967 18.1012C59.8342 18.5156 58.6956 18.8705 57.5534 19.1696L58.0601 21.1044ZM70.0264 15.7594C70.548 15.4176 71.0671 15.0613 71.5836 14.6901L70.4164 13.066C69.9231 13.4206 69.4277 13.7606 68.9303 14.0865L70.0264 15.7594ZM71.5836 14.6901C72.1046 14.3156 72.6362 13.9658 73.1775 13.6402L72.1465 11.9264C71.5588 12.28 70.9817 12.6597 70.4164 13.066L71.5836 14.6901ZM82.063 10.4754C83.313 10.2856 84.583 10.1851 85.8644 10.1704L85.8414 8.17055C84.4707 8.1863 83.1079 8.29386 81.7628 8.49811L82.063 10.4754ZM95.325 11.5453C96.5455 11.9094 97.7557 12.343 98.9479 12.8426L99.7209 10.9981C98.4643 10.4714 97.1869 10.0136 95.8968 9.62874L95.325 11.5453ZM107.271 17.6562C108.291 18.4322 109.276 19.2615 110.219 20.141L111.583 18.6787C110.591 17.753 109.555 16.8803 108.481 16.0641L107.271 17.6562ZM116.331 27.5462C117.006 28.6307 117.622 29.7553 118.175 30.9169L119.981 30.0572C119.395 28.8267 118.742 27.6366 118.029 26.4899L116.331 27.5462ZM120.99 40.0537C121.18 41.2997 121.3 42.5725 121.344 43.87L123.343 43.8023C123.296 42.4262 123.169 41.0752 122.967 39.7522L120.99 40.0537ZM120.322 53.4047C120.025 54.6175 119.66 55.8454 119.225 57.0867L121.113 57.7483C121.569 56.4474 121.952 55.1578 122.265 53.8813L120.322 53.4047ZM115.078 65.8052C114.425 66.8913 113.715 67.9845 112.947 69.0837L114.587 70.2291C115.38 69.0938 116.114 67.9626 116.792 66.8364L115.078 65.8052ZM106.815 76.6226C105.949 77.5533 105.039 78.4866 104.084 79.4219L105.484 80.8507C106.46 79.8944 107.392 78.9391 108.279 77.9851L106.815 76.6226ZM96.7721 85.8941C95.7577 86.7112 94.7071 87.5286 93.6197 88.3461L94.8215 89.9448C95.9263 89.1142 96.9944 88.2831 98.0267 87.4517L96.7721 85.8941ZM85.5938 93.935C84.5257 94.6264 83.4297 95.317 82.3054 96.0069L83.3514 97.7116C84.4891 97.0135 85.5986 96.3143 86.6805 95.614L85.5938 93.935ZM73.7898 100.914C72.6304 101.543 71.4463 102.17 70.2368 102.796L71.1562 104.573C72.3768 103.941 73.5724 103.307 74.7432 102.672L73.7898 100.914ZM61.4354 107.115C60.8242 107.4 60.2074 107.684 59.585 107.968L60.415 109.788C61.0421 109.502 61.6637 109.215 62.2798 108.928L61.4354 107.115Z" fill="#5C707F"/>
</svg>
