<svg width="601" height="208" viewBox="0 0 601 208" fill="none" xmlns="http://www.w3.org/2000/svg">
<path d="M17.7124 150.957C17.6952 150.977 17.6696 151.006 17.6353 151.046C17.6011 151.085 17.5754 151.115 17.5583 151.134L44.3698 174.481C45.5328 172.589 45.5116 169.874 44.3061 166.335C42.8272 162.316 40.364 158.494 36.9164 154.87C33.4174 151.305 29.8089 149.096 26.0908 148.244C23.0254 147.476 20.2326 148.381 17.7124 150.957ZM47.8319 174.436L63.7551 174.195C64.123 174.17 64.474 174.303 64.8083 174.594C65.1229 174.868 65.3066 175.252 65.3593 175.748C65.3676 176.135 65.2347 176.486 64.9608 176.801C64.6697 177.135 64.2765 177.329 63.7811 177.381L47.9388 177.589L56.0244 184.681C56.3587 184.972 56.5411 185.339 56.5716 185.78C56.5996 186.185 56.468 186.554 56.1769 186.888C55.8858 187.223 55.5294 187.414 55.1076 187.461C54.6662 187.492 54.2783 187.361 53.944 187.07L14.357 152.547C13.88 152.063 13.7769 151.506 14.0476 150.878C14.2987 150.232 14.664 149.634 15.1434 149.083C18.5762 145.538 22.4399 144.218 26.7346 145.122C31.3191 146.21 35.4753 148.723 39.2033 152.661C42.9458 156.542 45.6393 160.754 47.2838 165.298C48.5895 168.682 48.7722 171.728 47.8319 174.436Z" fill="#F8FAF8"/>
<path d="M46.6841 115.606L51.6289 111.277C51.9571 110.979 52.3326 110.85 52.7553 110.889C53.1797 110.891 53.5496 111.066 53.865 111.413C54.1436 111.759 54.2633 112.143 54.2244 112.566C54.2047 112.971 54.0395 113.332 53.7288 113.65L52.457 114.751L85.7039 151.39L87.0046 150.263C87.3503 149.984 87.7346 149.864 88.1572 149.903C88.5817 149.905 88.9428 150.071 89.2407 150.399C89.5192 150.745 89.6478 151.138 89.6263 151.58C89.6067 151.986 89.4327 152.337 89.1045 152.635L84.186 156.992C83.8402 157.271 83.4551 157.409 83.0306 157.407C82.608 157.368 82.2477 157.184 81.9498 156.856C81.6538 156.491 81.5156 156.106 81.5352 155.701C81.5742 155.278 81.7578 154.918 82.0861 154.62L83.3315 153.49L50.0847 116.851L48.784 117.978C48.4557 118.276 48.0706 118.414 47.6286 118.393C47.206 118.354 46.8457 118.17 46.5479 117.842C46.2693 117.496 46.1399 117.121 46.1595 116.715C46.181 116.273 46.3558 115.904 46.6841 115.606Z" fill="#F8FAF8"/>
<path d="M77.2514 90.1969L88.811 81.9546C89.2356 81.6518 89.6888 81.5689 90.1706 81.7057C90.6373 81.8212 91.0022 82.1534 91.2655 82.7023L109.338 132.165L119.655 124.809C120.016 124.551 120.415 124.459 120.851 124.532C121.288 124.605 121.635 124.822 121.892 125.183C122.149 125.544 122.241 125.943 122.168 126.379C122.08 126.794 121.863 127.141 121.517 127.42L109.48 136.003C108.585 136.545 107.778 136.288 107.057 135.232L88.9851 85.7693L79.1133 92.8082C78.7372 93.0443 78.3386 93.1364 77.9173 93.0845C77.4809 93.0114 77.134 92.7944 76.8767 92.4335C76.6042 92.0514 76.5121 91.6527 76.6003 91.2376C76.6734 90.8011 76.8904 90.4543 77.2514 90.1969Z" fill="#F8FAF8"/>
<path d="M117.105 64.0253C117.128 64.0131 117.139 64.007 117.139 64.007C117.508 63.8122 117.904 63.78 118.327 63.9106C118.75 64.0411 119.058 64.2908 119.253 64.6597L135.047 94.3122C138.135 91.5608 139.579 87.009 139.379 80.6568C138.983 72.8162 136.812 65.1608 132.867 57.6907C132.66 57.2988 132.616 56.909 132.736 56.5215C132.866 56.0987 133.121 55.7723 133.501 55.5422C133.928 55.3461 134.342 55.3194 134.742 55.4621C135.152 55.5696 135.461 55.8193 135.668 56.2112C139.922 64.4325 142.22 72.5516 142.561 80.5685C142.751 85.3929 141.928 89.5576 140.093 93.0626C142.544 92.6231 145.012 92.6614 147.496 93.1776C152.439 94.1055 156.63 97.1846 160.071 102.415C160.301 102.795 160.362 103.19 160.255 103.6C160.17 103.999 159.933 104.331 159.542 104.596C159.163 104.826 158.767 104.887 158.357 104.78C157.946 104.672 157.614 104.435 157.361 104.067C154.404 99.5844 150.893 96.9858 146.83 96.2715C143.328 95.6148 139.936 95.9761 136.655 97.3555L144.048 111.187C144.243 111.556 144.275 111.952 144.145 112.374C144.014 112.797 143.753 113.112 143.361 113.319C142.992 113.514 142.596 113.546 142.174 113.416C141.751 113.285 141.442 113.035 141.247 112.666L116.47 66.1738C116.263 65.7819 116.225 65.3745 116.356 64.9517C116.486 64.5289 116.736 64.2201 117.105 64.0253Z" fill="#F8FAF8"/>
<path d="M162.295 42.6024C162.913 41.9352 163.624 41.8306 164.427 42.2886L176.932 51.4486L181.001 36.2517C181.131 35.8443 181.366 35.5373 181.708 35.3307C182.073 35.1152 182.455 35.0602 182.854 35.1655C183.286 35.2866 183.597 35.5344 183.788 35.9089C183.995 36.2501 184.045 36.62 183.94 37.0185L179.441 53.7851L192.282 89.4C192.433 89.8169 192.415 90.2256 192.227 90.6263C192.055 90.9935 191.765 91.2648 191.357 91.4401C190.907 91.5753 190.486 91.5612 190.094 91.3979C189.718 91.2012 189.454 90.8945 189.303 90.4777L176.425 54.8761L162.645 44.7215C162.3 44.4581 162.098 44.1292 162.039 43.7348C161.971 43.3159 162.056 42.9384 162.295 42.6024Z" fill="#F8FAF8"/>
<path d="M271.249 20.4421C271.77 20.4059 272.28 20.4097 272.779 20.4534C275.617 20.6742 278.071 22.1371 280.141 24.8421C282.209 27.5211 283.315 31.3909 283.458 36.4515C283.438 36.9234 283.27 37.3271 282.954 37.6627C282.636 37.9724 282.241 38.1304 281.771 38.137C281.301 38.1435 280.899 37.9886 280.563 37.6721C280.253 37.3539 280.095 36.9598 280.089 36.4898C279.934 32.005 279.083 28.797 277.538 26.8658C276.016 24.9068 274.338 23.8865 272.503 23.805C270.688 23.6437 269.07 24.2398 267.648 25.5932C266.25 26.9188 265.534 29.0203 265.499 31.8978C265.568 34.4021 265.952 36.5318 266.649 38.2867C267.344 40.0157 268.134 41.4114 269.018 42.4738C269.928 43.5344 270.726 44.3022 271.412 44.7772C272.125 45.2504 272.481 45.487 272.481 45.487C273.082 45.8634 273.367 46.3795 273.334 47.0352C273.325 47.6631 273.006 48.1557 272.378 48.513C268.653 50.5754 266.742 53.7271 266.645 57.968C266.795 60.8849 267.703 63.0434 269.369 64.4435C271.035 65.8436 272.883 66.4862 274.913 66.3711C276.92 66.2839 278.594 65.3703 279.937 63.6303C281.161 62.0555 281.69 59.5226 281.526 56.0317L277.627 56.3419C277.159 56.3745 276.745 56.2465 276.385 55.9578C276.049 55.6414 275.852 55.25 275.793 54.7836C275.787 54.3136 275.929 53.9117 276.219 53.5778C276.508 53.218 276.886 53.0218 277.355 52.9892L288.622 52.0882C289.116 52.0538 289.53 52.1819 289.864 52.4723C290.198 52.7627 290.395 53.1541 290.456 53.6465C290.462 54.1165 290.321 54.5315 290.032 54.8913C289.742 55.2252 289.363 55.4083 288.895 55.4409L284.879 55.7593C285.142 59.9229 284.403 63.2022 282.661 65.5972C280.646 68.1941 278.129 69.5715 275.108 69.7293C272.369 69.8151 269.825 68.9335 267.475 67.0844C265.149 65.2074 263.737 62.1953 263.24 58.048C263.115 55.1293 263.695 52.7628 264.981 50.9484C266.29 49.1062 267.594 47.7479 268.892 46.8735C267.51 45.7934 266.082 44.0501 264.608 41.6435C263.132 39.2108 262.306 35.975 262.13 31.9361C262.158 28.5886 263.056 25.8994 264.823 23.8686C266.59 21.8377 268.732 20.6956 271.249 20.4421Z" fill="#F8FAF8"/>
<path d="M373.857 23.2008C374.291 23.2901 374.62 23.5042 374.843 23.8429C375.097 24.1613 375.193 24.4738 375.13 24.7803L373.567 78.564C373.483 78.9726 373.269 79.3013 372.925 79.5499C372.581 79.7986 372.256 79.8914 371.949 79.8283C371.515 79.739 371.174 79.5224 370.925 79.1784C370.702 78.8397 370.622 78.5171 370.685 78.2106L370.917 69.5137L359.594 67.1041L356.674 74.8887C356.585 75.3229 356.343 75.659 355.948 75.8972C355.583 76.1151 355.12 76.1662 354.559 76.0506C354.124 75.9613 353.786 75.7319 353.542 75.3623C353.33 74.9725 353.281 74.4967 353.397 73.9349L372.01 24.4179C372.099 23.9837 372.313 23.6551 372.652 23.4319C373.021 23.1885 373.423 23.1115 373.857 23.2008ZM371.664 34.2494L360.415 64.2782L370.704 66.475L371.664 34.2494Z" fill="#F8FAF8"/>
<path d="M413.309 33.1174L419.508 35.2981C419.929 35.4376 420.226 35.7011 420.4 36.0884C420.607 36.4591 420.636 36.8672 420.488 37.3127C420.324 37.7252 420.048 38.0183 419.661 38.1919C419.298 38.3738 418.903 38.4074 418.474 38.2925L416.89 37.7257L401.308 84.6833L402.929 85.2624C403.342 85.4267 403.635 85.7025 403.809 86.0898C404.015 86.4606 404.049 86.8563 403.909 87.277C403.745 87.6895 403.465 87.9949 403.069 88.1934C402.707 88.3753 402.315 88.3964 401.894 88.2568L395.683 86.1132C395.27 85.9489 394.961 85.6814 394.754 85.3106C394.58 84.9233 394.563 84.5193 394.703 84.0986C394.876 83.6614 395.143 83.3518 395.506 83.1699C395.893 82.9962 396.297 82.9792 396.718 83.1188L398.314 83.6484L413.895 36.6909L412.274 36.1118C411.854 35.9722 411.544 35.7047 411.346 35.3092C411.172 34.9219 411.155 34.5179 411.295 34.0972C411.459 33.6847 411.722 33.3875 412.085 33.2056C412.48 33.0072 412.888 32.9778 413.309 33.1174Z" fill="#F8FAF8"/>
<path d="M457.19 50.5286C459.644 51.3181 461.329 53.0273 462.246 55.6561C463.104 58.286 462.628 61.5089 460.817 65.3248C460.627 65.7252 460.323 65.9997 459.906 66.1481C459.489 66.2966 459.081 66.2758 458.68 66.0857C458.28 65.8956 458.005 65.5922 457.857 65.1753C457.732 64.7697 457.765 64.3667 457.955 63.9662C458.737 62.3174 459.192 60.8736 459.318 59.6347C459.468 58.407 459.418 57.3875 459.168 56.5762C458.67 55.0119 457.675 54.0059 456.185 53.5582C454.682 53.0757 453.046 53.2083 451.277 53.9559C449.519 54.68 448.131 56.0846 447.112 58.1698C445.833 61.2283 445.31 64.1548 445.542 66.9492C445.809 69.7312 446.35 72.5134 447.165 75.2959C447.204 75.5167 447.256 75.743 447.319 75.975C448.12 78.6645 448.667 81.4349 448.958 84.2864C449.273 87.1491 448.796 90.0687 447.528 93.0454C445.762 96.8253 443.627 99.3474 441.122 100.612C438.57 101.853 436.164 101.967 433.904 100.952C431.713 99.9117 430.19 98.1351 429.334 95.6217C428.501 93.1195 428.767 90.4316 430.131 87.5579C430.321 87.1575 430.624 86.8831 431.041 86.7346C431.458 86.5861 431.867 86.6069 432.267 86.797C432.668 86.9871 432.942 87.2905 433.091 87.7074C433.239 88.1242 433.218 88.5328 433.028 88.9333C431.966 91.1709 431.726 93.1061 432.307 94.7387C432.9 96.3477 433.879 97.4474 435.244 98.0376C436.528 98.6761 437.996 98.5936 439.647 97.7901C441.38 96.9966 443.03 94.9801 444.597 91.7408C445.678 89.2811 446.077 86.8295 445.794 84.3861C445.522 81.9191 444.99 79.3291 444.2 76.6161C444.162 76.4536 444.112 76.2855 444.05 76.1118C443.199 73.2834 442.642 70.2625 442.378 67.0489C442.114 63.8353 442.727 60.4463 444.217 56.8819C445.558 54.0554 447.454 52.098 449.905 51.0099C452.379 49.933 454.807 49.7725 457.19 50.5286Z" fill="#F8FAF8"/>
<path d="M494.683 70.5463C495.588 70.6422 496.097 71.149 496.211 72.0667L496.357 87.567L510.967 81.7307C511.371 81.5909 511.758 81.5958 512.128 81.7455C512.519 81.9095 512.792 82.1826 512.946 82.565C513.108 82.9835 513.096 83.3813 512.91 83.7584C512.76 84.1282 512.494 84.3901 512.112 84.5442L495.987 90.9754L475.142 122.579C474.899 122.95 474.56 123.179 474.127 123.269C473.729 123.351 473.339 123.281 472.954 123.059C472.576 122.779 472.335 122.433 472.232 122.022C472.164 121.603 472.252 121.208 472.496 120.838L493.308 89.2123L493.195 72.0955C493.2 71.6616 493.342 71.3028 493.623 71.0191C493.917 70.7136 494.271 70.556 494.683 70.5463Z" fill="#F8FAF8"/>
<path d="M543.463 106.043C543.797 106.334 543.978 106.682 544.007 107.086C544.072 107.488 544.002 107.807 543.797 108.044L516.056 154.148C515.782 154.463 515.435 154.644 515.013 154.692C514.591 154.74 514.262 154.661 514.026 154.456C513.692 154.165 513.5 153.809 513.452 153.387C513.424 152.983 513.513 152.662 513.718 152.426L518.186 144.961L509.499 137.307L503.137 142.66C502.846 142.994 502.47 143.168 502.009 143.182C501.585 143.193 501.156 143.011 500.723 142.634C500.389 142.344 500.206 141.978 500.175 141.536C500.181 141.092 500.372 140.654 500.749 140.221L541.255 106.198C541.546 105.863 541.894 105.682 542.299 105.653C542.74 105.622 543.128 105.752 543.463 106.043ZM536.132 114.596L511.601 135.247L519.49 142.208L536.132 114.596Z" fill="#F8FAF8"/>
<path d="M573.31 134.22C573.603 134.553 573.735 134.94 573.707 135.382C573.679 135.823 573.499 136.191 573.166 136.483L546.512 159.892L556.532 171.393L583.218 147.904C583.551 147.611 583.938 147.479 584.38 147.507C584.821 147.535 585.188 147.715 585.481 148.048C585.774 148.381 585.898 148.758 585.852 149.18C585.824 149.622 585.644 149.989 585.311 150.282L545.795 185.064C545.462 185.357 545.075 185.489 544.634 185.461C544.192 185.433 543.825 185.252 543.532 184.92C543.239 184.587 543.107 184.2 543.135 183.758C543.18 183.336 543.369 182.979 543.702 182.686L554.154 173.486L544.134 161.985L533.624 171.236C533.291 171.529 532.904 171.661 532.463 171.633C532.021 171.605 531.662 171.434 531.387 171.121C531.094 170.789 530.962 170.401 530.99 169.96C531.018 169.518 531.198 169.151 531.531 168.858L571.047 134.076C571.38 133.783 571.767 133.651 572.208 133.679C572.65 133.707 573.017 133.888 573.31 134.22Z" fill="#F8FAF8"/>
</svg>
