<svg width="500" height="160" viewBox="0 0 500 160" fill="none" xmlns="http://www.w3.org/2000/svg">
<path d="M35.3451 149.533C35.1583 149.749 34.9408 149.856 34.6925 149.852C34.4409 149.803 34.2066 149.685 33.9898 149.498C33.6492 149.163 33.4946 148.904 33.5261 148.721C33.5576 148.538 33.7186 148.278 34.0091 147.941C34.6109 147.243 34.9365 146.621 34.9861 146.076C35.0117 145.511 34.8749 145.036 34.5757 144.652C34.2733 144.224 33.8313 143.739 33.2498 143.196L18.9398 130.87C18.2927 130.354 17.7469 129.989 17.3026 129.774C16.879 129.535 16.3894 129.47 15.8339 129.579C15.2784 129.688 14.6998 130.092 14.098 130.791L13.9112 131.008C13.7037 131.249 13.5223 131.386 13.3671 131.42C13.1877 131.434 12.919 131.307 12.561 131.041C12.3442 130.854 12.205 130.65 12.1434 130.429C12.0786 130.164 12.1395 129.922 12.3263 129.705C13.7473 128.202 15.0181 126.8 16.1386 125.499L21.4923 119.283C23.1141 117.449 24.7433 116.166 26.3798 115.436C28.0129 114.66 29.5241 114.367 30.9135 114.557C32.2788 114.726 33.4673 115.246 34.4792 116.118C35.8042 117.259 36.5642 118.837 36.7594 120.851C36.9753 122.842 36.546 124.948 35.4715 127.17L36.9764 127.396C39.4861 127.795 41.6839 128.093 43.5699 128.291C45.4317 128.468 47.2836 128.51 49.1254 128.418C50.2605 128.221 51.2083 127.778 51.9687 127.091C52.0102 127.042 52.1156 126.944 52.2849 126.796C52.4302 126.628 52.6045 126.547 52.808 126.555C53.0322 126.538 53.2648 126.633 53.5057 126.841C53.7225 127.028 53.8633 127.254 53.9282 127.519C53.9898 127.74 53.9272 127.959 53.7404 128.176L52.895 129.084C51.9338 130.103 51.2457 130.853 50.8307 131.335C49.8079 132.133 48.7548 132.673 47.6712 132.957C46.5843 133.196 45.2926 133.258 43.7961 133.144C42.2789 133.054 39.9449 132.743 36.794 132.211L35.1858 131.959C34.3204 131.843 33.6462 131.871 33.1629 132.042C32.6556 132.193 32.0492 132.678 31.3437 133.497L30.441 134.545L36.3312 139.618C36.9543 140.113 37.4896 140.49 37.9373 140.75C38.3817 140.965 38.8816 141.018 39.4371 140.909C39.9685 140.779 40.5351 140.365 41.1369 139.666L41.3237 139.449C41.5104 139.232 41.6935 139.117 41.8728 139.104C42.0489 139.046 42.3159 139.15 42.6739 139.416C42.8907 139.603 43.0316 139.829 43.0965 140.095C43.158 140.316 43.0954 140.535 42.9086 140.751C41.5083 142.231 40.1753 143.706 38.9095 145.175C37.8097 146.452 36.6216 147.904 35.3451 149.533ZM31.7708 130.151C34.8626 126.561 34.7221 123.314 31.3494 120.409C29.9762 119.226 28.4152 118.7 26.6664 118.83C24.9176 118.96 23.1198 120.098 21.273 122.242C20.6712 122.94 20.2991 123.543 20.1564 124.05C20.0138 124.556 20.085 125.058 20.3701 125.555C20.6759 126.029 21.2503 126.628 22.0935 127.355L29.0317 133.331L31.7708 130.151Z" fill="#F8FAF8"/>
<path d="M65.3627 117.209C65.1969 117.358 64.9911 117.414 64.7455 117.378C64.5235 117.321 64.3276 117.197 64.158 117.008C63.906 116.679 63.818 116.437 63.894 116.284C63.9489 116.107 64.1303 115.88 64.4382 115.605C65.0542 115.053 65.397 114.554 65.4667 114.108C65.5365 113.661 65.4559 113.285 65.2251 112.98C65.018 112.653 64.6388 112.182 64.0874 111.566L56.8029 103.428C56.2515 102.812 55.8249 102.383 55.523 102.142C55.2449 101.879 54.88 101.757 54.4286 101.777C53.9771 101.797 53.4434 102.083 52.8275 102.634C52.5432 102.889 52.2982 103.044 52.0924 103.1C51.8655 103.133 51.6141 102.995 51.3384 102.687C51.2112 102.545 51.1419 102.372 51.1307 102.169C51.0982 101.942 51.1661 101.732 51.3344 101.538C52.636 99.9892 53.6396 98.536 54.3452 97.179C54.5708 96.7636 54.7796 96.4487 54.9716 96.2341L55.0782 96.1387C55.4573 95.7994 55.8482 95.8548 56.2512 96.3049L67.3211 108.671C67.8725 109.287 68.2991 109.716 68.601 109.958C68.9029 110.2 69.2795 110.311 69.731 110.291C70.1824 110.271 70.7161 109.985 71.3321 109.433L71.5453 109.243C71.7348 109.073 71.9088 108.981 72.0671 108.967C72.2255 108.954 72.4438 109.078 72.722 109.341C72.8916 109.531 72.9927 109.739 73.0252 109.966C73.0576 110.193 72.9791 110.391 72.7896 110.561C71.352 111.72 70.0764 112.798 68.963 113.795C67.8969 114.749 66.6968 115.887 65.3627 117.209ZM50.3035 93.3076C49.6402 93.9014 48.9032 94.1984 48.0926 94.1986C47.2608 94.1751 46.5692 93.8554 46.0178 93.2395C45.53 92.6946 45.3677 91.9651 45.5309 91.0509C45.694 90.1367 46.1191 89.3721 46.8061 88.7571C47.3984 88.227 48.0749 88.0054 48.8357 88.0925C49.5752 88.156 50.2313 88.5075 50.8039 89.1471C51.3128 89.7157 51.5225 90.4028 51.4329 91.2085C51.3433 92.0141 50.9669 92.7139 50.3035 93.3076Z" fill="#F8FAF8"/>
<path d="M84.9822 100.452C84.7742 100.599 84.5633 100.631 84.3495 100.548C84.1357 100.465 83.9555 100.32 83.8091 100.112C83.6154 99.7816 83.5301 99.55 83.5532 99.4171C83.6023 99.2659 83.7438 99.1079 83.9778 98.9432C84.5757 98.5221 84.9902 98.1719 85.2212 97.8926C85.4523 97.6132 85.5894 97.2833 85.6327 96.9029C85.6836 96.4782 85.6545 95.857 85.5455 95.0394L83.0464 80.0583C82.8824 79.1627 82.7089 78.585 82.5258 78.325C82.3428 78.065 82.116 77.9914 81.8454 78.1042C81.5825 78.1726 81.1781 78.399 80.6321 78.7835L78.9943 79.9367C78.1104 80.5591 77.5038 81.1612 77.1746 81.743C76.8531 82.2804 76.7782 82.9748 76.9499 83.8261C77.1032 84.6514 77.5596 85.7689 78.3188 87.1786C78.4393 87.4049 78.4191 87.6524 78.2584 87.9211C78.1236 88.1716 77.9003 88.4066 77.5883 88.6263C77.3803 88.7727 77.1396 88.845 76.8661 88.8432C76.5926 88.8413 76.3826 88.7364 76.2361 88.5284L73.5217 83.2651C73.3174 82.8646 73.2437 82.5665 73.3004 82.371C73.3649 82.1312 73.5271 81.9198 73.7871 81.7367L84.472 74.2131C84.9139 73.9019 85.6366 73.3542 86.6398 72.57L87.5483 71.872C87.7303 71.7439 87.9282 71.7212 88.142 71.804C88.3818 71.8684 88.5749 72.0046 88.7214 72.2126C88.9151 72.5429 88.9873 72.7836 88.9383 72.9348C88.8892 73.0861 88.7607 73.2349 88.5527 73.3813C87.9548 73.8024 87.5273 74.1617 87.2702 74.4594C87.0392 74.7387 86.8982 75.0908 86.8473 75.5155C86.804 75.8959 86.8369 76.4949 86.946 77.3125L89.4841 92.2662C89.6297 93.1358 89.8032 93.7135 90.0046 93.9995C90.1877 94.2595 90.4106 94.3552 90.6735 94.2868C90.9441 94.174 91.3524 93.9254 91.8983 93.541L94.0821 92.0034C94.966 91.381 95.5687 90.801 95.8902 90.2636C96.2194 89.6818 96.3074 88.9783 96.154 88.153C95.9823 87.3017 95.5168 86.1712 94.7576 84.7615C94.6371 84.5352 94.6443 84.2968 94.779 84.0464C94.9398 83.7776 95.1761 83.5334 95.4881 83.3138C95.6961 83.1673 95.9368 83.095 96.2103 83.0969C96.4838 83.0987 96.6938 83.2036 96.8403 83.4116L99.5547 88.6749C99.759 89.0755 99.8289 89.3957 99.7644 89.6355C99.7077 89.831 99.5493 90.0203 99.2893 90.2034L88.0195 98.1388C87.6035 98.4317 86.8679 98.9886 85.8126 99.8094L84.9822 100.452Z" fill="#F8FAF8"/>
<path d="M115.665 80.042C115.439 80.1574 115.225 80.1589 115.025 80.0466C114.825 79.9343 114.668 79.7648 114.552 79.5382C114.393 79.1554 114.356 78.9068 114.44 78.7924C114.539 78.6353 114.772 78.463 115.14 78.2754C115.877 77.9004 116.336 77.506 116.518 77.0923C116.7 76.6786 116.733 76.2873 116.616 75.9184C116.5 75.5496 116.254 74.9968 115.879 74.2601L105.341 53.5617C104.966 52.825 104.664 52.301 104.434 51.9899C104.232 51.6643 103.911 51.4533 103.469 51.357C103.028 51.2607 102.439 51.4 101.702 51.7751C101.362 51.9482 101.085 52.0356 100.872 52.0371C100.644 52.0103 100.437 51.8128 100.249 51.4444C100.163 51.2744 100.14 51.0897 100.181 50.8903C100.208 50.6626 100.327 50.4769 100.54 50.3332C102.195 49.1693 103.537 48.022 104.567 46.8911C104.892 46.5475 105.174 46.2966 105.415 46.1384L105.543 46.0735C105.996 45.8427 106.36 45.9965 106.634 46.5348L116.523 65.9582C117.639 65.0684 118.393 64.0249 118.782 62.8276L120.491 57.3548C120.505 57.2409 120.581 56.9702 120.72 56.5426C120.845 56.0867 120.857 55.7595 120.756 55.5612C120.539 55.1362 119.801 55.298 118.541 56.0466C118.2 56.1486 117.9 55.9801 117.641 55.5412C117.526 55.3145 117.482 55.0873 117.508 54.8596C117.563 54.6175 117.69 54.4459 117.889 54.3449C119.207 53.7808 120.787 53.0298 122.629 52.0922C123.025 51.8902 123.634 51.5445 124.455 51.0551L125.411 50.5149C125.61 50.4139 125.809 50.4195 126.009 50.5319C126.237 50.6297 126.409 50.792 126.524 51.0187C126.669 51.3731 126.706 51.6217 126.636 51.7644C126.566 51.9071 126.418 52.0362 126.191 52.1516C125.143 52.6853 124.372 53.3095 123.88 54.0241C123.387 54.7386 122.926 55.7943 122.495 57.1909L120.786 62.6637C122.028 63.2804 124.509 64.3004 128.231 65.7237C129.913 66.3656 130.783 66.7076 130.841 66.7499C132.409 67.3073 133.527 67.6475 134.197 67.7706C134.894 67.8793 135.626 67.7745 136.391 67.4561C136.448 67.4272 136.569 67.3837 136.753 67.3255C136.951 67.2245 137.122 67.209 137.265 67.2791C137.436 67.3347 137.586 67.49 137.716 67.745C138.004 68.3117 137.922 68.7105 137.469 68.9413C137.214 69.0711 136.774 69.2592 136.15 69.5055C135.541 69.7801 134.074 70.5088 131.751 71.6917C130.454 71.2461 127.345 70.0103 122.424 67.9842C120.884 67.3413 120.156 67.0338 120.242 67.0616C118.973 66.6016 117.935 66.6305 117.128 67.1482L119.747 72.291C120.122 73.0277 120.41 73.5588 120.612 73.8844C120.841 74.1956 121.177 74.3993 121.618 74.4956C122.06 74.592 122.649 74.4526 123.386 74.0775L123.641 73.9477C123.896 73.8178 124.102 73.7666 124.258 73.7939C124.415 73.8212 124.594 73.9976 124.795 74.3232C124.911 74.5499 124.941 74.7843 124.886 75.0264C124.859 75.2541 124.746 75.4185 124.548 75.5195C122.861 76.2712 121.352 76.986 120.02 77.664C118.745 78.3132 117.294 79.1058 115.665 80.042Z" fill="#F8FAF8"/>
<path d="M157.489 71.8026C156.193 72.238 154.891 72.2057 153.583 71.706C152.315 71.2262 151.489 70.4137 151.104 69.2683C150.648 67.912 150.732 66.9114 151.354 66.2665C151.986 65.6517 152.513 65.2734 152.935 65.1317C153.447 64.9596 153.904 64.9234 154.307 65.023C154.709 65.1226 154.941 65.2629 155.001 65.4437C155.022 65.504 154.952 65.6952 154.792 66.0173C154.632 66.3394 154.653 66.8019 154.855 67.4047C155.058 68.0075 155.416 68.4743 155.929 68.8049C156.473 69.1254 157.091 69.1692 157.785 68.9364C159.683 68.2986 160.884 65.732 161.387 61.2364C161.366 60.7739 161.319 60.4372 161.249 60.2262C161.147 59.9248 160.946 59.5734 160.643 59.1719C159.585 58.018 157.73 55.8404 155.078 52.639C152.739 49.7687 150.889 47.6061 149.528 46.1513C148.621 45.1479 147.87 44.5111 147.276 44.241C146.673 43.9407 145.913 43.8771 144.999 44.0501C144.898 44.0503 144.722 44.0759 144.471 44.1267C144.22 44.1776 144.044 44.1528 143.943 44.0525C143.842 43.9522 143.741 43.7513 143.64 43.4499C143.518 43.0882 143.533 42.8318 143.683 42.6806C143.864 42.5194 144.09 42.3932 144.361 42.3021C144.653 42.1707 144.843 42.0898 144.934 42.0594C146.742 41.3515 148.28 41.1368 149.547 41.4155C150.805 41.664 152.038 42.4404 153.248 43.7448C154.427 45.0592 155.506 46.3237 156.484 47.5381C158.783 50.3883 160.562 52.4405 161.822 53.6944L161.958 53.6489L162.41 40.3154C162.388 39.7524 162.342 39.3654 162.271 39.1544C162.16 38.8228 161.933 38.6474 161.592 38.6281C161.25 38.6087 160.732 38.7155 160.039 38.9483L159.768 39.0394C159.526 39.1204 159.33 39.1359 159.18 39.086C159.059 39.026 158.923 38.8201 158.771 38.4686C158.7 38.2576 158.679 38.0465 158.709 37.8353C158.759 37.5838 158.889 37.4226 159.1 37.3518C160.849 36.8652 162.326 36.4194 163.531 36.0145C164.013 35.8525 164.938 35.5085 166.304 34.9826L167.238 34.6185C167.449 34.5476 167.65 34.5974 167.842 34.7679C168.023 34.9083 168.149 35.0839 168.22 35.2949C168.311 35.6667 168.312 35.9181 168.222 36.049C168.132 36.1799 167.966 36.2859 167.725 36.3669C166.61 36.7414 165.811 37.2108 165.33 37.775C164.849 38.3391 164.574 39.2195 164.506 40.4162C164.39 42.367 164.201 45.4995 163.94 49.8135C163.678 54.1276 163.474 57.3154 163.328 59.3769C163.114 62.3334 162.592 64.974 161.762 67.2985C160.933 69.623 159.509 71.1244 157.489 71.8026Z" fill="#F8FAF8"/>
<path d="M229.317 46.4177C226.651 46.5792 224.147 46.2689 221.806 45.4869C219.497 44.703 217.588 43.417 216.078 41.6291C214.566 39.8094 213.725 37.4873 213.554 34.6627C213.412 32.3141 213.971 30.2416 215.232 28.4451C216.491 26.6169 218.361 25.4206 220.844 24.8562L220.835 24.7134C218.745 23.3428 217.633 21.5467 217.499 19.3251C217.372 17.2304 218.032 15.5022 219.478 14.1405C220.925 12.7787 222.981 12.0171 225.647 11.8557C227.551 11.7404 229.18 12.0717 230.533 12.8499C231.884 13.5962 232.609 14.7787 232.707 16.3973C232.768 17.4129 232.52 18.3039 231.961 19.0704C231.434 19.835 230.678 20.247 229.694 20.3066C229.091 20.3431 228.558 20.2162 228.094 19.9257C227.663 19.6333 227.44 19.376 227.427 19.1539C227.425 19.1221 227.559 18.9707 227.829 18.6995C228.099 18.4283 228.335 18.1114 228.536 17.7488C228.767 17.3526 228.868 16.9165 228.839 16.4404C228.783 15.52 228.406 14.8102 227.707 14.3111C227.037 13.7782 226.211 13.5416 225.227 13.6012C223.703 13.6935 222.541 14.2257 221.74 15.198C220.971 16.1684 220.627 17.3359 220.71 18.7006C220.85 21.0174 221.92 22.6409 223.919 23.571L225.49 23.4758C225.998 23.4451 226.335 23.4884 226.502 23.6057C226.698 23.6894 226.828 24 226.893 24.5377C226.912 24.855 226.849 25.1296 226.704 25.3614C226.558 25.5931 226.343 25.7177 226.057 25.735L224.391 25.8359C222.34 26.1512 220.818 27.0557 219.825 28.5492C218.864 30.0408 218.441 31.7229 218.554 33.5954C218.677 35.6266 219.261 37.375 220.305 38.8408C221.349 40.3065 222.738 41.401 224.47 42.1243C226.233 42.8457 228.194 43.141 230.353 43.0103C232.669 42.87 234.767 42.2652 236.645 41.1958C238.522 40.0947 239.98 38.6686 241.021 36.9173C242.06 35.1343 242.515 33.1796 242.386 31.0532C242.274 29.2124 241.67 27.6404 240.571 26.3372C239.473 25.034 238.035 24.4362 236.258 24.5439C235.338 24.5996 234.449 24.9241 233.593 25.5175C232.767 26.0772 232.383 26.8331 232.441 27.7852C232.471 28.293 232.625 28.7296 232.902 29.0951C233.209 29.4269 233.635 29.6241 234.18 29.6866C235.011 29.7319 235.668 29.5328 236.151 29.0895C236.634 28.6462 236.906 28.4067 236.968 28.3711C237.128 28.3932 237.332 28.6039 237.579 29.003C237.856 29.3685 238.01 29.8051 238.041 30.3129C238.098 31.265 237.81 32.031 237.177 32.6109C236.574 33.1889 235.797 33.5067 234.845 33.5644C233.639 33.6374 232.642 33.22 231.855 32.3121C231.065 31.3724 230.624 30.1409 230.532 28.6175C230.394 26.3324 230.891 24.5503 232.024 23.2713C233.157 21.9922 234.536 21.0964 236.161 20.5839C237.785 20.0396 239.904 19.5291 242.519 19.0522C244.822 18.6897 246.503 18.3012 247.561 17.8868C248.244 17.5906 248.794 17.2069 249.211 16.7357C249.659 16.2308 249.865 15.6927 249.83 15.1214C249.773 14.1693 249.152 13.6494 247.968 13.5619C247.137 13.5166 246.48 13.7157 245.997 14.159C245.515 14.6024 245.242 14.8418 245.181 14.8774C244.989 14.8572 244.751 14.6167 244.468 14.1561C244.186 13.6954 244.074 13.1606 244.132 12.5519C244.205 11.6555 244.546 10.966 245.154 10.4832C245.762 10.0005 246.494 9.73314 247.351 9.68124C248.049 9.63896 248.643 9.71448 249.132 9.90781C249.915 10.2108 250.504 10.7326 250.9 11.4731C251.295 12.2137 251.52 13.0441 251.576 13.9645C251.68 15.6783 251.216 17.2195 250.184 18.588C249.181 19.9228 247.781 20.9951 245.983 21.8048C244.182 22.5828 242.171 23.039 239.95 23.1736C242.819 25.3251 244.346 27.9243 244.531 30.971C244.708 33.8909 244.148 36.489 242.853 38.7653C241.589 41.0398 239.771 42.8382 237.398 44.1604C235.025 45.4827 232.332 46.2351 229.317 46.4177Z" fill="#F8FAF8"/>
<path d="M290.705 47.4564C290.425 47.3963 290.243 47.2596 290.159 47.0463C290.05 46.7953 290.026 46.5299 290.086 46.2502C290.217 45.7906 290.371 45.5308 290.546 45.471C290.722 45.4111 290.918 45.4046 291.136 45.4514C291.353 45.4981 291.493 45.5282 291.556 45.5416C292.488 45.742 293.222 45.6558 293.757 45.2831C294.3 44.8792 294.758 44.4087 295.134 43.8715C295.547 43.3099 295.824 42.9304 295.964 42.7328L308.273 25.1823C308.56 24.7561 308.733 24.4032 308.793 24.1234C308.914 23.5638 308.783 23.113 308.401 22.7707C308.019 22.4285 307.457 22.0962 306.713 21.7737C306.204 21.5669 305.898 21.4035 305.794 21.2835C305.689 21.1635 305.684 20.886 305.778 20.4508C305.858 20.0777 306.004 19.8491 306.218 19.7648C306.462 19.6872 306.802 19.6952 307.237 19.7888C308.791 20.1228 309.992 20.511 310.84 20.9535C311.726 21.3715 312.434 22.0115 312.965 22.8734C313.501 23.7043 313.912 24.8982 314.195 26.4551L317.88 47.4428C318.092 48.7243 318.352 49.7071 318.661 50.3913C318.969 51.0754 319.555 51.5266 320.419 51.7448L320.698 51.8049C321.009 51.8717 321.213 51.9806 321.311 52.1317C321.415 52.2517 321.436 52.5326 321.374 52.9745C321.314 53.2543 321.183 53.4862 320.98 53.6704C320.816 53.8302 320.594 53.8801 320.314 53.8199C318.345 53.2991 316.645 52.885 315.215 52.5777C313.35 52.1768 311.413 51.8093 309.403 51.4749C309.123 51.4148 308.926 51.2748 308.81 51.0549C308.733 50.8105 308.724 50.5485 308.784 50.2687C308.909 49.8402 309.043 49.5927 309.188 49.5261C309.339 49.4285 309.57 49.4131 309.881 49.4799C310.937 49.7071 311.704 49.7742 312.179 49.6812C312.661 49.5571 312.959 49.2309 313.072 48.7024C313.159 48.2983 313.129 47.5277 312.984 46.3906L312.23 42.1797L300.713 39.7044C299.521 41.4647 298.83 42.4869 298.639 42.7711C298.479 43.0619 298.396 43.2228 298.389 43.2539C297.762 44.355 297.412 45.0765 297.338 45.4185C297.225 45.9469 297.381 46.3545 297.807 46.6412C298.24 46.8969 299.109 47.165 300.415 47.4456L300.695 47.5057C301.006 47.5725 301.21 47.6815 301.307 47.8325C301.412 47.9525 301.433 48.2335 301.37 48.6753C301.31 48.9551 301.179 49.1871 300.977 49.3713C300.812 49.5311 300.59 49.5809 300.31 49.5208C298.341 48.9999 296.657 48.5892 295.258 48.2886C294.263 48.0748 292.746 47.7974 290.705 47.4564ZM302.03 37.8898L311.822 39.9943L309.688 26.9986L309.548 26.9686L302.03 37.8898Z" fill="#F8FAF8"/>
<path d="M336.02 58.8821C335.81 58.8076 335.662 58.6538 335.576 58.4208C335.52 58.1985 335.535 57.9675 335.62 57.7278C335.788 57.3489 335.958 57.1562 336.129 57.1495C336.311 57.1128 336.596 57.1636 336.986 57.302C337.765 57.5787 338.367 57.6407 338.792 57.4882C339.218 57.3356 339.509 57.0848 339.667 56.7359C339.855 56.3977 340.087 55.8391 340.363 55.0601L344.019 44.7683C344.296 43.9893 344.468 43.4094 344.536 43.0286C344.634 42.6584 344.566 42.28 344.332 41.8932C344.098 41.5065 343.592 41.1748 342.813 40.8981C342.453 40.7704 342.199 40.6297 342.052 40.4759C341.914 40.2922 341.915 40.0056 342.053 39.6161C342.117 39.4363 342.236 39.2928 342.409 39.1856C342.592 39.0484 342.809 39.0074 343.06 39.0626C345.043 39.4634 346.799 39.6486 348.329 39.6182C348.801 39.6174 349.178 39.6499 349.458 39.7157L349.593 39.7636C350.072 39.9339 350.211 40.3036 350.009 40.8729L344.453 56.5128C344.177 57.2918 344.004 57.8717 343.936 58.2525C343.869 58.6333 343.952 59.0171 344.185 59.4038C344.419 59.7906 344.926 60.1223 345.705 60.399L345.974 60.4948C346.214 60.5799 346.378 60.6887 346.466 60.8212C346.554 60.9536 346.549 61.2049 346.451 61.5751C346.366 61.8148 346.231 62.0032 346.048 62.1404C345.864 62.2776 345.652 62.3037 345.413 62.2185C343.707 61.5114 342.15 60.9077 340.742 60.4075C339.393 59.9286 337.819 59.4201 336.02 58.8821ZM349.792 34.2163C348.953 33.9183 348.339 33.4135 347.951 32.7019C347.573 31.9604 347.523 31.2002 347.8 30.4212C348.044 29.7321 348.607 29.2402 349.488 28.9457C350.368 28.6512 351.243 28.6583 352.112 28.9669C352.861 29.233 353.38 29.7208 353.667 30.4304C353.966 31.11 353.971 31.8543 353.684 32.6632C353.429 33.3823 352.926 33.8954 352.176 34.2026C351.425 34.5097 350.631 34.5143 349.792 34.2163Z" fill="#F8FAF8"/>
<path d="M367.078 72.0022C364.787 70.8973 363.119 69.5987 362.073 68.1063C361.028 66.6138 360.858 65.1373 361.562 63.6767C361.962 62.8461 362.53 62.2905 363.266 62.0098C364.03 61.7428 364.813 61.8027 365.615 62.1894C366.073 62.4104 366.412 62.7326 366.631 63.1561C366.879 63.5934 366.969 63.8836 366.9 64.0268C366.886 64.0555 366.624 64.1587 366.115 64.3367C365.634 64.5285 365.242 64.9394 364.938 65.5694C364.524 66.4286 364.579 67.3024 365.104 68.1908C365.671 69.0644 366.699 69.8602 368.188 70.5784C369.534 71.2275 370.718 71.4452 371.739 71.2314C372.802 71.0029 373.589 70.3588 374.1 69.2991C374.445 68.5831 374.514 67.8924 374.305 67.227C374.096 66.5617 373.725 65.9413 373.19 65.3659C372.685 64.8043 371.942 64.0754 370.962 63.1793C369.752 62.1017 368.8 61.1483 368.105 60.3192C367.411 59.4902 366.942 58.5227 366.698 57.417C366.455 56.3113 366.644 55.114 367.266 53.8252C367.846 52.6224 368.715 51.7709 369.874 51.2708C371.033 50.7706 372.303 50.5889 373.685 50.7255C375.095 50.876 376.458 51.2688 377.776 51.9041C379.465 52.7189 380.753 53.7813 381.64 55.0911C382.555 56.4148 382.701 57.721 382.08 59.0098C381.707 59.783 381.146 60.3243 380.397 60.6337C379.676 60.9569 378.929 60.9321 378.156 60.5592C377.697 60.3382 377.344 60.0091 377.096 59.5718C376.877 59.1483 376.802 58.865 376.871 58.7218C376.885 58.6931 377.054 58.6338 377.38 58.5438C377.706 58.4538 378.017 58.3214 378.313 58.1465C378.652 57.9568 378.911 57.6757 379.09 57.3034C379.406 56.5025 379.309 55.7147 378.8 54.9398C378.292 54.165 377.55 53.5428 376.577 53.0732C375.488 52.5484 374.405 52.3435 373.325 52.4585C372.289 52.5587 371.556 53.0527 371.128 53.9405C370.742 54.7424 370.603 55.4697 370.712 56.1223C370.834 56.7462 371.17 57.3672 371.719 57.985C372.269 58.6028 373.171 59.5143 374.425 60.7193C375.708 61.9381 376.676 62.9695 377.328 63.8134C377.994 64.6287 378.397 65.5117 378.539 66.4624C378.723 67.3984 378.539 68.4391 377.986 69.5847C377.42 70.7589 376.559 71.6672 375.402 72.3095C374.259 72.9232 372.954 73.212 371.489 73.1762C370.038 73.1116 368.567 72.7203 367.078 72.0022Z" fill="#F8FAF8"/>
<path d="M385.349 92.8654C384.208 92.1124 383.431 91.0667 383.019 89.7282C382.616 88.4338 382.747 87.2824 383.413 86.2739C384.201 85.0796 385.04 84.5289 385.931 84.6217C386.805 84.741 387.428 84.9232 387.799 85.1683C388.25 85.466 388.561 85.8041 388.73 86.1825C388.899 86.5609 388.931 86.8297 388.826 86.9889C388.791 87.042 388.598 87.1046 388.245 87.1769C387.893 87.2491 387.542 87.5506 387.191 88.0814C386.841 88.6121 386.694 89.1816 386.75 89.7899C386.832 90.4156 387.178 90.9298 387.789 91.3326C389.461 92.4358 392.222 91.8009 396.074 89.4281C396.425 89.1266 396.662 88.8829 396.784 88.6972C396.96 88.4318 397.112 88.0563 397.242 87.5706C397.499 86.0262 398.072 83.2235 398.961 79.1628C399.782 75.5521 400.346 72.7627 400.655 70.7947C400.886 69.462 400.926 68.4785 400.773 67.8443C400.637 67.1836 400.22 66.5462 399.52 65.9322C399.458 65.8531 399.33 65.7303 399.135 65.5637C398.94 65.397 398.851 65.2431 398.868 65.102C398.885 64.9608 398.981 64.7575 399.156 64.4921C399.366 64.1736 399.577 64.0271 399.789 64.0526C400.027 64.0955 400.266 64.1958 400.505 64.3534C400.788 64.502 400.969 64.6025 401.049 64.6551C402.72 65.6436 403.836 66.723 404.397 67.8932C404.976 69.0369 405.124 70.4868 404.841 72.2431C404.532 73.9818 404.2 75.6104 403.846 77.1289C403.016 80.6956 402.496 83.3612 402.284 85.126L402.403 85.2048L413.186 77.3491C413.616 76.9855 413.893 76.7108 414.015 76.525C414.208 76.2331 414.207 75.9465 414.011 75.6652C413.816 75.3839 413.413 75.0419 412.803 74.6392L412.564 74.4816C412.352 74.3415 412.219 74.1966 412.165 74.047C412.138 73.9148 412.216 73.6807 412.4 73.3448C412.522 73.159 412.676 73.0127 412.861 72.906C413.089 72.7903 413.297 72.7937 413.482 72.9163C414.943 73.9941 416.203 74.8832 417.265 75.5836C417.69 75.8638 418.53 76.3801 419.786 77.1325L420.648 77.6443C420.834 77.7669 420.918 77.9561 420.902 78.2119C420.903 78.4412 420.842 78.6487 420.72 78.8345C420.483 79.1354 420.285 79.2907 420.127 79.3003C419.968 79.3098 419.783 79.2446 419.57 79.1045C418.588 78.4566 417.727 78.1168 416.986 78.085C416.245 78.0532 415.382 78.3792 414.398 79.0629C412.789 80.1729 410.205 81.9533 406.645 84.4042C403.085 86.855 400.448 88.6577 398.734 89.8123C396.273 91.4642 393.871 92.6794 391.529 93.4577C389.187 94.2361 387.127 94.0386 385.349 92.8654Z" fill="#F8FAF8"/>
<path d="M425.665 110.111C424.238 108.845 423.443 107.417 423.281 105.828C423.118 104.238 423.575 102.837 424.652 101.624C425.981 100.126 427.473 99.4517 429.126 99.6008C430.8 99.7262 432.422 100.294 433.991 101.304C435.581 102.29 437.523 103.695 439.817 105.517L442.317 102.699C443.351 101.534 443.835 100.39 443.768 99.268C443.746 98.1432 443.093 97.011 441.809 95.8713C441.072 95.2171 440.229 94.8732 439.281 94.8396C438.333 94.8061 437.521 95.1698 436.846 95.9308C436.508 96.3113 436.307 96.7063 436.241 97.1156C436.22 97.5222 436.231 97.8932 436.274 98.2285C436.34 98.5849 436.363 98.775 436.341 98.7988C436.215 98.9415 435.891 98.9946 435.371 98.958C434.896 98.9188 434.444 98.7093 434.016 98.3294C433.303 97.6963 432.964 96.9282 433 96.0251C433.06 95.1431 433.407 94.3454 434.04 93.632C435.137 92.3953 436.497 91.9651 438.118 92.3414C439.764 92.7388 441.371 93.6339 442.941 95.0268C444.891 96.7573 446.145 98.5294 446.704 100.343C447.286 102.178 446.691 104.094 444.918 106.091L437.542 114.403C437.123 114.924 436.856 115.536 436.74 116.241C436.624 116.947 436.888 117.584 437.53 118.154C437.72 118.323 437.819 118.474 437.827 118.609C437.859 118.765 437.769 118.962 437.558 119.199C437.305 119.485 436.9 119.486 436.342 119.204C435.788 118.967 435.296 118.659 434.868 118.279C433.964 117.477 433.4 116.508 433.175 115.373C432.949 114.238 433.179 113.188 433.865 112.224C432.543 112.708 431.137 112.736 429.647 112.306C428.181 111.898 426.854 111.167 425.665 110.111ZM428.516 109.198C429.324 109.916 430.253 110.378 431.301 110.586C432.35 110.794 433.382 110.732 434.398 110.401C435.436 110.047 436.334 109.441 437.094 108.585L438.898 106.552C436.233 104.526 434.114 103.369 432.543 103.079C430.971 102.79 429.574 103.335 428.35 104.715C426.915 106.332 426.97 107.826 428.516 109.198Z" fill="#F8FAF8"/>
<path d="M448.717 131.3C448.553 131.106 448.502 130.899 448.566 130.679C448.629 130.458 448.758 130.266 448.952 130.102C449.288 129.859 449.522 129.765 449.652 129.821C449.828 129.881 450.049 130.069 450.316 130.384C450.85 131.015 451.339 131.372 451.784 131.454C452.228 131.536 452.617 131.478 452.949 131.28C453.281 131.082 453.763 130.716 454.394 130.182L472.159 115.146C472.79 114.611 473.231 114.197 473.481 113.902C473.751 113.631 473.883 113.27 473.875 112.818C473.868 112.366 473.597 111.825 473.063 111.194C472.816 110.902 472.668 110.653 472.618 110.446C472.591 110.218 472.736 109.971 473.052 109.704C473.197 109.581 473.372 109.516 473.575 109.51C473.803 109.484 474.011 109.558 474.2 109.732C475.397 110.801 476.349 111.557 477.057 112C477.809 112.446 478.239 112.707 478.345 112.784C478.905 113.101 479.257 113.345 479.401 113.515C479.791 113.976 479.756 114.401 479.295 114.792L467.573 124.713L467.635 124.786C468.885 124.935 469.866 125.084 470.575 125.234C471.309 125.362 472.085 125.664 472.903 126.138C473.765 126.616 474.597 127.328 475.398 128.275C476.795 129.925 477.407 131.656 477.234 133.469C477.06 135.282 476.16 136.877 474.534 138.253L466.78 144.816C466.149 145.35 465.699 145.753 465.428 146.024C465.178 146.319 465.056 146.692 465.064 147.144C465.071 147.596 465.342 148.137 465.876 148.768L466.061 148.987C466.246 149.205 466.333 149.381 466.322 149.516C466.331 149.675 466.2 149.889 465.93 150.16C465.736 150.324 465.525 150.42 465.297 150.446C465.069 150.472 464.883 150.4 464.74 150.23C463.6 148.737 462.558 147.432 461.613 146.315C460.648 145.175 459.543 143.944 458.3 142.622C458.135 142.428 458.085 142.22 458.148 142C458.212 141.78 458.341 141.588 458.535 141.423C458.871 141.18 459.104 141.087 459.235 141.143C459.41 141.203 459.632 141.39 459.899 141.706C460.433 142.337 460.922 142.693 461.366 142.775C461.811 142.858 462.177 142.798 462.464 142.596C462.797 142.398 463.29 142.022 463.946 141.467L471.663 134.935C472.78 133.99 473.331 132.919 473.318 131.722C473.35 130.529 472.975 129.472 472.194 128.549C471.25 127.433 470.149 126.699 468.892 126.346C467.656 126.017 466.646 125.956 465.862 126.161L457.198 133.495C456.567 134.029 456.116 134.431 455.845 134.702C455.595 134.997 455.474 135.37 455.481 135.822C455.489 136.274 455.76 136.816 456.294 137.447L456.479 137.665C456.663 137.883 456.75 138.06 456.739 138.194C456.748 138.353 456.618 138.568 456.347 138.838C456.153 139.003 455.942 139.098 455.714 139.124C455.486 139.15 455.301 139.079 455.157 138.909C454.038 137.439 452.996 136.134 452.031 134.994C451.106 133.902 450.002 132.671 448.717 131.3Z" fill="#F8FAF8"/>
</svg>
