<svg width="361" height="67" viewBox="0 0 361 67" fill="none" xmlns="http://www.w3.org/2000/svg">
<path d="M359.044 45.7669C350.341 45.2384 339.525 45.6029 332.909 51.5627L332.608 51.4351C326.475 49.321 318.884 50.2596 312.505 50.1138C304.577 49.9224 296.612 49.9315 288.693 49.5123C285.061 49.3144 281.496 48.4495 278.177 46.9607C281.021 45.0288 283.417 41.8394 282.916 38.2763C282.278 33.8019 277.685 33.1731 273.976 33.7199C266.686 34.777 267.597 41.6936 271.024 46.6054C268.983 47.2068 266.905 47.7262 264.854 48.2365C258.331 49.8587 251.702 51.025 245.016 51.7267C231.219 53.1483 217.012 52.72 203.535 49.2754C198.943 48.1074 194.459 46.5526 190.13 44.6279C196.188 41.485 201.545 37.1447 205.877 31.87C209.446 27.4299 211.406 21.9112 211.435 16.2142C211.435 10.9835 209.759 3.52018 204.765 0.80457C199.981 -1.80168 194.258 2.48128 190.923 5.71631C188.365 8.21502 186.31 11.1818 184.872 14.4555C181.728 6.901 175.932 -0.926872 166.929 3.46548C158.417 7.62091 156.658 18.3193 160.814 26.1472C165.215 34.4398 172.533 40.7276 181.026 45.284C163.375 51.6629 143.536 50.5512 125.101 49.9953C119.724 49.8404 113.765 50.3871 108.516 49.084C107.433 48.8161 106.384 48.4247 105.39 47.9175C106.625 47.2007 107.699 46.2358 108.543 45.0835C110.493 42.3497 111.477 37.9482 108.707 35.4331C105.937 32.918 101.699 34.5218 99.3574 36.8C98.0252 38.0252 97.1357 39.6565 96.8275 41.44C96.5192 43.2235 96.8096 45.0588 97.6533 46.66C93.3794 46.66 88.6681 45.8946 86.1074 45.7488C79.1817 45.2567 72.2834 44.555 65.3486 44.1813C59.0583 43.7773 52.7466 43.8473 46.4669 44.3909C42.2295 44.8101 37.5181 45.2566 33.4265 46.8605C24.4869 41.4566 9.93379 46.0039 1.65028 50.1229C-0.0811419 50.9886 -0.974194 54.743 1.65028 53.4126C8.422 49.8887 16.0045 48.2162 23.6303 48.5646C25.3638 48.6581 27.077 48.9829 28.7243 49.5305C26.9318 50.9527 25.6754 52.9416 25.1612 55.1713C24.5324 58.2697 25.6625 61.9786 29.0615 62.7623C32.2966 63.5187 35.3675 60.7848 36.7983 58.2059C37.6148 56.8612 38.0087 55.3024 37.9291 53.7313C37.8495 52.1601 37.3 50.6491 36.3517 49.3939C37.263 49.2116 38.2472 49.0658 39.1494 48.9017C43.5176 48.1737 47.9348 47.7777 52.3629 47.7171C59.848 47.6776 67.3303 48.0213 74.7803 48.7468C82.2072 49.3574 89.8619 50.3689 97.3253 50.0408C98.2407 50.0033 99.1534 49.915 100.059 49.7766C103.203 52.5104 107.768 53.2941 111.96 53.4855C123.606 54.0231 135.398 54.3967 147.054 54.0778C159.52 53.7588 172.961 52.1003 184.762 47.1977C194.289 51.5159 204.438 54.3023 214.834 55.4538C225.512 56.6282 236.292 56.5028 246.939 55.0802C252.458 54.3772 257.934 53.3671 263.342 52.0548C266.733 51.3376 270.08 50.4248 273.366 49.321C274.032 49.9285 274.773 50.449 275.571 50.8701C281.904 54.1325 289.942 53.3944 296.831 53.604L321.08 54.1871C323.86 54.26 327.204 54.096 330.011 55.0984C329.265 56.2616 328.653 57.5059 328.188 58.8073C327.076 61.9603 326.666 65.7148 330.703 66.5441C333.947 67.2184 337.474 64.9129 338.577 61.8874C339.825 58.4519 338.203 55.1805 335.542 53.1483C341.219 48.5919 350.378 49.2298 357.221 49.649C358.98 49.6308 361.377 45.8945 359.044 45.7669ZM32.8069 52.1459C33.3909 52.771 33.8406 53.5091 34.1282 54.3147C34.6659 56.274 34.0371 56.7296 32.4514 57.7503C30.8658 58.7709 30.2917 59.2174 29.262 57.3675C28.4054 55.8184 28.8975 54.6337 29.6812 53.2486C30.1661 52.3828 30.8541 51.6479 31.686 51.107C32.0659 51.4109 32.4195 51.7462 32.7431 52.1095L32.8069 52.1459ZM104.524 38.331C106.866 39.2422 107.404 42.0307 105.846 44.1175C105.044 45.078 103.96 45.7605 102.747 46.0677C101.916 45.2679 101.271 44.2938 100.861 43.2154C99.9315 40.7549 101.554 37.1645 104.497 38.2945L104.524 38.331ZM168.706 29.4551C163.867 24.0421 158.162 13.125 165.972 7.38396C175.039 0.740754 181.081 15.5855 182.903 21.7457C183.468 23.6594 186.357 20.9711 186.548 19.9869C187.615 14.2186 190.512 8.91492 195.461 5.57053C204.318 -0.425672 207.9 12.3869 207.69 18.702C207.307 30.4666 196.481 38.4039 186.658 43.0058C179.871 39.636 173.773 35.0279 168.678 29.4186L168.706 29.4551ZM276.583 37.5199C281.276 39.3425 278.587 43.4797 275.234 45.1747C272.919 43.3521 271.589 40.837 272.272 37.5199C273.669 37.1117 275.152 37.0991 276.555 37.4835L276.583 37.5199ZM333.392 62.817C330.403 63.0357 331.678 58.1694 332.48 56.7023C332.535 56.6111 332.599 56.52 332.653 56.4198C333.232 56.8988 333.733 57.4645 334.139 58.0966C334.803 58.8622 335.205 59.82 335.287 60.8304L333.392 62.817Z" fill="#5C707F"/>
</svg>
