<svg width="360" height="48" viewBox="0 0 360 48" fill="none" xmlns="http://www.w3.org/2000/svg">
<path d="M-13.7652 39.9554L-11.5013 38.9182L-9.03168 37.8811L-6.15039 38.342L-3.47491 37.5353L-0.7995 37.1896H2.08179L4.75726 36.8439L7.63852 36.7286L10.1082 36.0372L12.9894 36.1524L15.6649 35.5762L18.3404 34.8848L21.2216 35.1152L23.8971 35.461L26.7784 35.6915L29.4538 35.9219L32.9525 35.5762L35.8338 35.6915L38.9208 35.461L41.5963 36.0372L44.6834 35.8067L47.3588 36.6134H50.2401L52.9156 37.4201L55.7968 37.6506L58.6781 37.9963L62.3826 36.9591L64.8522 37.3048L67.3219 36.6134L69.9974 36.8439L71.438 37.9963L73.7018 37.5353L75.9657 36.6134L78.2296 37.5353L80.6992 38.1115L82.3456 37.0744L84.6095 38.342L88.314 39.264L89.5488 37.9963L92.6359 37.8811L95.723 37.9963L98.6042 38.342L101.691 38.2268L104.161 38.803L106.013 37.8811L107.248 39.6097L109.718 40.8774L112.393 41.2231L115.069 40.9926L116.921 42.0298L118.567 42.3755L122.478 41.7993L125.359 41.3383L128.24 41.5688L130.71 42.3755L133.797 42.145L136.472 42.3755L139.148 41.4536L141.617 42.9517L144.087 43.4127L146.351 42.8365L150.261 43.8737L151.908 42.8365L154.377 43.4127L157.259 43.6432L160.14 44.1041L162.609 44.9108L165.285 45.487L168.166 45.8328L171.047 45.6023L173.723 46.5242L176.604 46.6395H179.485L182.367 46.8699L185.248 46.9852L188.129 47.5614H191.011L193.892 47.3309L196.567 46.9852L199.449 47.1004L202.124 46.409L205.005 46.2937L207.887 46.0633L210.768 46.1785L213.443 45.3718L216.325 45.1413L219.206 45.2566L222.087 45.1413L224.968 44.6803L226.615 42.7212L229.084 43.7584H232.377L234.641 42.0298L236.905 41.684L239.375 40.9926H242.256L245.137 41.3383L247.813 41.4536H250.077L252.752 41.2231L255.016 41.4536L258.309 41.684L261.19 41.1078L263.248 39.9554L264.689 41.2231L268.393 40.1859L270.657 40.8774L273.332 40.3011L276.214 40.0707L278.478 39.9554H281.359L283.828 40.5316L286.298 40.3011L288.768 39.8402L292.472 40.4164H295.148L298.029 40.3011L300.704 39.6097L303.997 40.0707L306.673 39.4944L309.142 38.803L312.23 39.0335L314.905 38.1115L317.786 38.2268L320.668 37.9963L323.549 37.8811L326.018 37.6506H328.694L331.164 37.8811L333.839 37.7658L336.309 37.1896L338.573 38.342L342.277 39.264L343.512 37.8811H346.393L349.069 37.9963H351.95L354.625 38.5725L357.507 38.2268L360.182 37.9963L362.858 38.2268L365.533 37.7658L368.414 37.8811L371.296 38.2268L373.765 37.1896L375 37.0744V6.41993L372.736 5.95897L370.266 6.65042L367.591 6.07421L365.121 5.498L362.858 4.80655L360.388 4.11509L358.124 3.42364L356.066 2.04073L354.625 3.30839L352.567 1.695L349.274 1.46452L347.628 2.5017L344.747 1.57976L341.865 1.695L338.984 2.04073L335.897 1.81025L333.016 2.27121L330.135 1.81025L327.047 2.27121L323.96 2.04073L320.873 1.57976L317.992 2.15597L315.111 2.84743L312.024 2.96267L309.554 3.8846H306.467L303.38 4.11509L300.91 4.6913L298.235 5.26751L295.354 5.498L292.472 5.84372L290.414 6.8809L288.15 6.76566L285.063 6.07421L283.623 8.14857L279.712 6.99614L278.272 8.37905L274.979 8.14857L271.686 7.91808L269.628 9.18575L267.158 10.1077L264.483 10.9144L262.013 11.7211L259.132 12.9887L255.839 11.6058L254.398 12.7583L252.752 13.9107L249.253 13.5649L246.166 13.4497L243.079 13.5649L240.198 13.7954L237.111 14.2564L233.818 13.9107L231.554 14.0259H228.673L226.203 14.3716H223.939L221.264 14.4869L217.559 13.6802L215.501 14.7174L212.826 14.0259L210.768 13.3345L207.887 12.9887L205.829 12.8735L202.947 13.9107L200.272 13.3345L198.214 12.2973L195.744 11.6058L192.657 11.4906L191.011 10.3382L188.952 9.30099L186.277 8.84002L183.396 8.60954L181.132 7.57235L178.045 7.6876L174.958 7.80284L171.871 8.26381L168.372 8.84002L166.108 7.57235L163.227 7.45712L161.169 6.8809H158.288L157.67 8.37905L155.406 8.95526L152.731 8.60954L150.055 8.03333L147.174 7.80284L144.293 7.57235L141.412 7.91808L138.736 8.37905H135.855L133.179 8.95526L130.092 8.72478L127.417 9.0705L125.153 10.1077L122.478 10.6839H119.391L117.127 9.41623L113.628 10.4534L111.982 9.53147L108.894 10.7991L106.013 11.8363L104.573 10.5687L100.456 11.6058L98.1926 10.5687L95.3113 10.2229L92.8417 10.4534L90.372 10.3382L87.9024 10.4534L85.2269 10.1077L82.1398 9.8772L79.2586 9.76196L76.3773 9.8772H73.2902L70.6148 8.95526L67.5277 9.41623L64.6464 9.18575L61.7652 8.95526L58.8839 8.37905H56.0026L53.3272 7.6876L51.0633 6.99614L48.3878 6.76566L46.124 6.07421L43.8602 5.38276L42.6253 3.99985L40.3615 3.53888L36.657 3.07791L34.5989 2.27121L31.5119 2.15597L29.0422 1.92549L26.3668 0.888306L23.6913 1.46452H20.81L18.3404 2.04073H14.6359L12.372 3.07791L10.9314 4.34557L8.25595 4.92178L5.58047 5.38276L2.905 5.498L0.229523 4.80655L-2.0343 5.95897L-3.47491 7.22663L-6.3562 6.65042H-9.23746L-11.7071 7.45712L-14.5884 7.80284L-15 7.6876V40.3011L-13.7652 39.9554Z" fill="#EDEEED"/>
<path d="M-15 9.87706V7.68749L-14.5884 7.80273L-11.7071 7.45701L-9.23746 6.65033H-6.3562L-3.47491 7.22653L-2.0343 5.95889L0.229523 4.80648L2.905 5.49792L5.58047 5.38268L8.25595 4.92172L10.9314 4.34552L12.372 3.07788L14.6359 2.04071H18.3404L20.81 1.46451H23.6913L26.3668 0.888306L29.0422 1.92547L31.5119 2.15595L34.5989 2.27119L36.657 3.07788L40.3615 3.53883L42.6253 3.9998L43.8602 5.38268L46.124 6.07413L48.3878 6.76557L51.0633 6.99605L53.3272 7.68749L56.0026 8.37893H58.8839L61.7652 8.95514L64.6464 9.18562L67.5277 9.4161L70.6148 8.95514L73.2902 9.87706H76.3773L79.2586 9.76182L82.1398 9.87706L85.2269 10.1075L87.9024 10.4533L90.372 10.338L92.8417 10.4533L95.3113 10.2228L98.1926 10.5685L100.456 11.6057L104.573 10.5685L106.013 11.8361L108.894 10.799L111.982 9.53134L113.628 10.4533L117.127 9.4161L119.391 10.6837H122.478L125.153 10.1075L127.417 9.07037L130.092 8.72465L133.179 8.95514L135.855 8.37893H138.736L141.412 7.91797L144.293 7.57225L147.174 7.80273L150.055 8.03321L152.731 8.60942L155.406 8.95514L157.67 8.37893L158.288 6.88081H161.169L163.227 7.45701L166.108 7.57225L168.372 8.8399L171.871 8.26369L174.958 7.80273L178.045 7.68749L181.132 7.57225L183.396 8.60942L186.277 8.8399L188.952 9.30086L191.011 10.338L192.657 11.4904L195.744 11.6057L198.214 12.2971L200.272 13.3343L202.947 13.9105L205.829 12.8733L207.887 12.9886L210.768 13.3343L212.826 14.0257L215.501 14.7172L217.559 13.68L221.264 14.4867L223.939 14.3714H226.203L228.673 14.0257H231.554L233.818 13.9105L237.111 14.2562L240.198 13.7952L243.079 13.5648L246.166 13.4495L249.253 13.5648L252.752 13.9105L254.398 12.7581L255.839 11.6057L259.132 12.9886L262.013 11.7209L264.483 10.9142L267.158 10.1075L269.628 9.18562L271.686 7.91797L274.979 8.14845L278.272 8.37893L279.712 6.99605L283.623 8.14845L285.063 6.07413L288.15 6.76557L290.414 6.88081L292.472 5.84364L295.354 5.49792L298.235 5.26744L300.91 4.69124L303.38 4.11504L306.467 3.88455H309.554L312.024 2.96263L315.111 2.84739L317.992 2.15595L320.873 1.57975L323.96 2.04071L327.047 2.27119L330.135 1.81023L333.016 2.27119L335.897 1.81023L338.984 2.04071L341.865 1.69499L344.747 1.57975L347.628 2.50167L349.274 1.46451L352.567 1.69499L354.625 3.30835L356.066 2.04071L358.124 3.4236L360.388 4.11504L362.858 4.80648L365.121 5.49792L367.591 6.07413L370.266 6.65033L372.736 5.95889L375 6.41985V8.03321L372.736 7.68749L370.061 8.14845L367.385 8.60942L364.71 8.8399L362.652 7.22653L359.565 8.14845L357.095 7.80273L354.214 7.91797L351.744 7.11129L349.274 6.65033L346.599 7.45701L344.129 6.65033L341.454 6.76557H338.778L336.515 7.68749L333.839 7.57225L330.958 7.45701H328.488L326.018 7.68749L323.549 8.26369L320.873 7.91797L317.992 7.80273L316.14 9.30086L313.053 8.72465L310.789 9.87706L308.113 9.64658L305.438 9.87706L303.174 10.799L300.293 9.64658L297.823 10.4533L294.942 10.2228L292.472 11.0295L290.414 12.2971H287.739L284.858 11.7209L282.594 12.8733L279.712 12.0666L277.243 12.9886L274.773 12.4123L271.892 12.6428L269.216 12.5276L266.953 13.68L264.277 13.5648L261.396 13.68L259.132 14.6019L256.456 14.141L253.987 15.1781L251.723 15.8696L249.047 15.5238L245.96 15.0629L243.697 15.1781L241.021 15.9848L238.346 15.8696L235.67 15.5238L233.201 16.3305L230.525 15.9848L228.055 16.4458L225.174 16.3305L222.91 17.022L220.029 17.1372L217.354 16.4458L214.884 17.022L212.414 16.3305L209.945 15.5238L207.475 14.8324L204.799 14.7172L202.124 14.9476L199.654 14.3714L196.979 14.2562L194.509 13.7952L192.04 13.5648L189.364 13.7952L186.689 13.219L184.219 12.2971L181.544 12.8733L178.868 12.6428L176.193 12.8733L173.723 11.9514L171.459 12.0666L168.372 12.4123L165.902 11.9514L163.433 11.3752L161.169 10.5685L158.493 11.0295L155.612 10.9142L153.142 10.338L150.467 11.0295L148.203 10.338L145.528 9.53134L142.852 10.5685H139.971L137.501 10.338L135.032 11.1447L132.356 11.6057L129.681 11.2599L127.211 11.6057L124.536 12.0666L121.86 12.1819L119.185 12.4123L116.303 11.3752L113.834 12.0666L111.158 11.8361L108.689 13.1038L106.013 13.219L103.338 12.2971L100.456 12.7581L98.1926 12.5276L95.3113 11.9514L92.8417 12.2971L89.9604 12.8733L87.2849 12.1819L84.4037 12.2971L81.9341 11.8361L79.2586 11.1447L76.5831 12.0666L74.1135 10.799L71.2322 11.6057L68.5567 11.1447L65.8813 11.4904L63.2058 11.2599L60.7361 10.2228L57.8549 9.87706L55.1794 10.9142L52.0923 11.0295L50.2401 9.4161L46.9472 9.76182L44.4775 9.07037L42.2137 8.26369L40.7731 6.76557L37.2744 7.11129L35.4221 5.84364L33.1583 4.92172L30.277 5.38268L27.8074 4.69124L25.3377 4.11504L22.868 5.1522L20.1926 5.03696L17.9287 5.61316L15.2533 5.38268L12.7836 5.84364L10.5198 6.76557L8.46173 7.22653L5.78629 7.34177L3.52243 8.60942L0.435364 6.88081L-2.0343 7.80273L-4.09235 8.8399L-6.97363 8.72465H-9.64908L-11.7071 9.53134L-14.5884 9.87706H-15Z" fill="white"/>
</svg>
