<svg width="178" height="31" viewBox="0 0 178 31" fill="none" xmlns="http://www.w3.org/2000/svg">
<path d="M12.6441 8.43948H5.07616V4.41797H0.109619V17.5107C0.109619 21.7602 2.41459 23.9575 6.46602 23.9575H9.90307V19.7349H7.29306C5.81513 19.7349 5.07616 18.9928 5.07616 17.4816V12.604H12.6441V23.9575H17.6107V8.43948H12.6441Z" fill="#F8FAF8" fill-opacity="0.5"/>
<path d="M30.3815 8.03955C28.3708 8.03955 26.6566 8.89567 25.7393 10.3509V8.43962H20.7728V23.9575H25.7393V15.9996C25.7393 13.5743 27.1592 12.1771 29.1398 12.1771C31.0023 12.1771 32.0656 13.2882 32.0656 15.4565V23.9554H37.0322V15.1144C37.0322 10.6929 34.5188 8.03955 30.3815 8.03955Z" fill="#F8FAF8" fill-opacity="0.5"/>
<path d="M52.0478 10.1578C51.0145 8.78756 49.2702 8.04541 47.2896 8.04541C42.7656 8.04541 39.4854 11.383 39.4854 15.7758C39.4854 20.1686 42.7656 23.5082 47.2896 23.5082C49.2702 23.5082 51.0145 22.7661 52.0478 21.3958V22.5381C52.0478 25.0485 50.4818 26.3317 47.8503 26.3317C46.106 26.3317 44.7462 25.5626 43.9492 24.4494L40.0825 26.7297C41.5863 28.8691 44.3402 30.3804 47.8567 30.3804C52.8233 30.3804 57.0208 27.6419 57.0208 22.536V8.43929H52.0478V10.1578ZM48.1167 19.3995C45.7816 19.3995 44.2156 17.9172 44.2156 15.7758C44.2156 13.6343 45.7816 12.1542 48.1167 12.1542C50.4517 12.1542 52.0199 13.6364 52.0199 15.7758C52.0199 17.9152 50.4517 19.3932 48.1167 19.3932V19.3995Z" fill="#F8FAF8" fill-opacity="0.5"/>
<path d="M76.1995 8.43913H70.5241L65.1451 14.9421V0H60.1786V23.9575H65.1451V17.3965L70.7905 23.9575H76.5261L69.6971 16.1693L76.1995 8.43913Z" fill="#F8FAF8" fill-opacity="0.5"/>
<path d="M88.7061 10.351C87.632 8.86671 85.9264 8.03955 83.9458 8.03955C79.4346 8.03955 76.1415 11.6053 76.1415 16.1992C76.1415 20.7932 79.4239 24.3589 83.9458 24.3589C85.9264 24.3589 87.6406 23.5297 88.7061 22.0474V23.9588H93.6705V8.43966H88.7061V10.351ZM84.7728 20.221C82.4378 20.221 80.8718 18.5107 80.8718 16.1992C80.8718 13.8877 82.4378 12.1774 84.7728 12.1774C87.1079 12.1774 88.676 13.8877 88.676 16.1992C88.676 18.5107 87.11 20.221 84.7728 20.221Z" fill="#F8FAF8" fill-opacity="0.5"/>
<path d="M101.791 4.41797H96.824V17.5107C96.824 21.7602 99.129 23.9575 103.18 23.9575H106.617V19.7349H104.007C102.53 19.7349 101.791 18.9928 101.791 17.4816V12.604H106.609V8.43948H101.791V4.41797Z" fill="#F8FAF8" fill-opacity="0.5"/>
<path d="M114.325 8.43799H109.358V23.9575H114.325V8.43799Z" fill="#F8FAF8" fill-opacity="0.5"/>
<path d="M127.094 8.03955C125.085 8.03955 123.371 8.89567 122.454 10.3509V8.43962H117.487V23.9575H122.454V15.9996C122.454 13.5743 123.871 12.1771 125.852 12.1771C127.71 12.1771 128.784 13.2882 128.784 15.4565V23.9554H133.747V15.1144C133.747 10.6929 131.233 8.03955 127.094 8.03955Z" fill="#F8FAF8" fill-opacity="0.5"/>
<path d="M139.31 18.5947C137.506 18.5947 136.176 19.8219 136.176 21.4968C136.176 23.1718 137.506 24.3989 139.31 24.3989C141.115 24.3989 142.444 23.1718 142.444 21.4968C142.444 19.8219 141.106 18.5947 139.31 18.5947Z" fill="#F8FAF8" fill-opacity="0.5"/>
<path d="M152.199 12.2318C152.842 12.2181 153.479 12.3633 154.048 12.6535C154.616 12.9438 155.099 13.3694 155.449 13.8901L159.531 11.7219C158.027 9.44168 155.363 8.04247 152.201 8.04247C147.293 7.95748 143.48 11.6079 143.568 16.2014C143.48 20.7929 147.293 24.4454 152.201 24.3604C155.363 24.3604 158.025 22.9612 159.531 20.6789L155.449 18.5127C155.099 19.0334 154.616 19.4591 154.048 19.7493C153.479 20.0395 152.842 20.1847 152.199 20.171C149.864 20.171 148.296 18.5127 148.296 16.2056C148.296 13.8984 149.858 12.2318 152.199 12.2318Z" fill="#F8FAF8" fill-opacity="0.5"/>
<path d="M169.367 8.03856C164.461 7.95356 160.646 11.6046 160.736 16.199C160.646 20.7913 164.461 24.4444 169.367 24.3594C174.274 24.4444 178.089 20.7913 177.999 16.199C178.089 11.6087 174.274 7.95356 169.367 8.03856ZM169.367 20.1651C167.032 20.1651 165.466 18.5065 165.466 16.199C165.466 13.8914 167.032 12.2307 169.367 12.2307C171.702 12.2307 173.271 13.8893 173.271 16.1969C173.271 18.5045 171.702 20.1651 169.367 20.1651Z" fill="#F8FAF8" fill-opacity="0.5"/>
<path d="M12.6441 4.19217V5.93994H14.4529C15.0235 5.94021 15.5885 5.83198 16.1157 5.62143C16.643 5.41087 17.1221 5.10212 17.5256 4.71282C17.9292 4.32351 18.2493 3.86128 18.4678 3.35253C18.6862 2.84377 18.7986 2.29847 18.7986 1.74777V0H16.9877C15.8357 0 14.7309 0.441674 13.9163 1.22786C13.1017 2.01404 12.6441 3.08034 12.6441 4.19217Z" fill="#F8FAF8" fill-opacity="0.5"/>
<path d="M109.358 4.19217V5.93994H111.169C112.321 5.93939 113.425 5.49748 114.239 4.71135C115.053 3.92523 115.511 2.85925 115.511 1.74777V0H113.702C113.132 0 112.567 0.108434 112.04 0.31911C111.513 0.529786 111.034 0.838579 110.631 1.22786C110.227 1.61714 109.907 2.07928 109.689 2.58789C109.471 3.09651 109.358 3.64164 109.358 4.19217Z" fill="#F8FAF8" fill-opacity="0.5"/>
</svg>
